<svg width="103" height="95" viewBox="0 0 103 95" fill="none" xmlns="http://www.w3.org/2000/svg">
<rect y="0.456726" width="103" height="94.0865" rx="9.90385" fill="url(#paint0_radial_106_185)"/>
<path d="M21.3384 30.2933H18.7523V29.6341L19.5383 29.5453V21.7997L18.7523 21.6983V21.0391H21.3384V21.6983L20.5524 21.7997V29.5453L21.3384 29.6341V30.2933ZM30.7271 30.2933H29.8904C29.6707 30.2933 29.5143 30.2088 29.4213 30.0397L24.9844 22.6491V29.9003C24.9844 30.1623 24.8534 30.2933 24.5914 30.2933H23.1843V29.6341L23.9703 29.5453V21.7997L23.1843 21.6983V21.0391H24.8069C25.0098 21.0391 25.1661 21.1236 25.276 21.2927L29.7129 28.696V21.4321C29.7129 21.1701 29.8397 21.0391 30.0932 21.0391H31.513V21.6983L30.7271 21.7997V30.2933ZM36.6214 21.6349C36.1144 21.6349 35.6833 21.7617 35.3284 22.0152C34.9734 22.2603 34.7114 22.5942 34.5424 23.0167C34.2466 23.7858 34.0987 24.6182 34.0987 25.5141C34.0987 26.4522 34.2466 27.3438 34.5424 28.1889C34.7114 28.6453 34.9734 29.0129 35.3284 29.2918C35.6833 29.5707 36.1144 29.7101 36.6214 29.7101C37.83 29.7101 38.5864 28.8692 38.8906 27.1874L39.7653 27.3903C39.3174 29.4524 38.2652 30.4834 36.6088 30.4834C36.0594 30.4834 35.5692 30.3778 35.1382 30.1665C34.7157 29.9468 34.3776 29.6721 34.1241 29.3425C33.8705 29.0129 33.6635 28.6199 33.5029 28.1635C33.224 27.386 33.0846 26.5155 33.0846 25.5521C33.0846 24.6563 33.224 23.8323 33.5029 23.0801C33.6635 22.6491 33.8705 22.2772 34.1241 21.9645C34.3776 21.6434 34.7199 21.3814 35.1509 21.1786C35.5819 20.9673 36.0721 20.8616 36.6214 20.8616C37.5426 20.8616 38.4849 21.1025 39.4484 21.5842L39.1188 22.3448C38.2652 21.8716 37.4328 21.6349 36.6214 21.6349ZM40.9708 25.6662C40.9708 24.1281 41.2962 22.9449 41.9469 22.1167C42.6061 21.28 43.5104 20.8616 44.6598 20.8616C45.8176 20.8616 46.7261 21.28 47.3853 22.1167C48.0445 22.9449 48.3741 24.1281 48.3741 25.6662C48.3741 27.2043 48.0445 28.3917 47.3853 29.2284C46.7261 30.0566 45.8176 30.4707 44.6598 30.4707C43.5104 30.4707 42.6061 30.0566 41.9469 29.2284C41.2962 28.3917 40.9708 27.2043 40.9708 25.6662ZM47.36 25.6662C47.36 24.3731 47.1191 23.3801 46.6374 22.6871C46.1641 21.9857 45.5049 21.6349 44.6598 21.6349C43.8231 21.6349 43.1639 21.9857 42.6822 22.6871C42.2089 23.3801 41.9723 24.3731 41.9723 25.6662C41.9723 26.9592 42.2089 27.9565 42.6822 28.6579C43.1639 29.351 43.8231 29.6975 44.6598 29.6975C45.5049 29.6975 46.1641 29.351 46.6374 28.6579C47.1191 27.9565 47.36 26.9592 47.36 25.6662ZM60.6965 30.2933H59.2513C58.9978 30.2933 58.8626 30.1707 58.8457 29.9256L58.3639 22.4209L55.7905 28.9875H54.8651L52.4311 22.4209L51.9621 29.9256C51.9452 30.1707 51.81 30.2933 51.5564 30.2933H50.1113V29.6341L50.9733 29.5453L51.4297 21.7997L50.7198 21.6983V21.0391H52.5833C52.803 21.0391 52.9509 21.1448 53.027 21.356L55.3215 27.7706L57.7681 21.356C57.8442 21.1448 57.9921 21.0391 58.2118 21.0391H60.0753V21.6983L59.3654 21.7997L59.8345 29.5453L60.6965 29.6341V30.2933ZM62.5892 21.0391H68.1797C68.4333 21.0391 68.56 21.1701 68.56 21.4321V23.1181H67.9008L67.8121 21.7363H64.3893V25.2479H67.9896V25.9451H64.3893V29.6087H67.9262L68.0276 28.265H68.6868V29.9003C68.6868 30.1623 68.5558 30.2933 68.2938 30.2933H62.5892V29.6341L63.3752 29.5453V21.7997L62.5892 21.6983V21.0391ZM18.803 46.2933H17.8142V45.6341L18.4227 45.5453L21.2243 37.0391H22.5681L25.3824 45.5453L25.9908 45.6341V46.2933H25.002C24.7739 46.2933 24.6217 46.1834 24.5457 45.9637L23.7217 43.4536H20.0834L19.2594 45.9637C19.1833 46.1834 19.0312 46.2933 18.803 46.2933ZM21.9342 37.9899H21.8708L20.3369 42.6677H23.4681L21.9342 37.9899ZM30.283 37.6349C29.7759 37.6349 29.3449 37.7617 28.9899 38.0152C28.635 38.2603 28.373 38.5942 28.204 39.0167C27.9082 39.7858 27.7603 40.6182 27.7603 41.5141C27.7603 42.4522 27.9082 43.3438 28.204 44.1889C28.373 44.6453 28.635 45.0129 28.9899 45.2918C29.3449 45.5707 29.7759 45.7101 30.283 45.7101C31.4915 45.7101 32.2479 44.8692 32.5521 43.1874L33.4268 43.3903C32.9789 45.4524 31.9267 46.4834 30.2703 46.4834C29.721 46.4834 29.2308 46.3778 28.7998 46.1665C28.3772 45.9468 28.0392 45.6721 27.7856 45.3425C27.5321 45.0129 27.325 44.6199 27.1644 44.1635C26.8856 43.386 26.7461 42.5155 26.7461 41.5521C26.7461 40.6563 26.8856 39.8323 27.1644 39.0801C27.325 38.6491 27.5321 38.2772 27.7856 37.9645C28.0392 37.6434 28.3814 37.3814 28.8124 37.1786C29.2435 36.9673 29.7336 36.8616 30.283 36.8616C31.2042 36.8616 32.1465 37.1025 33.1099 37.5842L32.7803 38.3448C31.9267 37.8716 31.0943 37.6349 30.283 37.6349ZM38.1565 37.6349C37.6495 37.6349 37.2184 37.7617 36.8635 38.0152C36.5085 38.2603 36.2465 38.5942 36.0775 39.0167C35.7817 39.7858 35.6338 40.6182 35.6338 41.5141C35.6338 42.4522 35.7817 43.3438 36.0775 44.1889C36.2465 44.6453 36.5085 45.0129 36.8635 45.2918C37.2184 45.5707 37.6495 45.7101 38.1565 45.7101C39.3651 45.7101 40.1215 44.8692 40.4257 43.1874L41.3004 43.3903C40.8525 45.4524 39.8003 46.4834 38.1439 46.4834C37.5945 46.4834 37.1043 46.3778 36.6733 46.1665C36.2508 45.9468 35.9127 45.6721 35.6592 45.3425C35.4056 45.0129 35.1986 44.6199 35.038 44.1635C34.7591 43.386 34.6197 42.5155 34.6197 41.5521C34.6197 40.6563 34.7591 39.8323 35.038 39.0801C35.1986 38.6491 35.4056 38.2772 35.6592 37.9645C35.9127 37.6434 36.255 37.3814 36.686 37.1786C37.117 36.9673 37.6072 36.8616 38.1565 36.8616C39.0777 36.8616 40.02 37.1025 40.9835 37.5842L40.6539 38.3448C39.8003 37.8716 38.9679 37.6349 38.1565 37.6349ZM42.5059 41.6662C42.5059 40.1281 42.8313 38.9449 43.482 38.1167C44.1412 37.28 45.0455 36.8616 46.1949 36.8616C47.3527 36.8616 48.2612 37.28 48.9204 38.1167C49.5796 38.9449 49.9092 40.1281 49.9092 41.6662C49.9092 43.2043 49.5796 44.3917 48.9204 45.2284C48.2612 46.0566 47.3527 46.4707 46.1949 46.4707C45.0455 46.4707 44.1412 46.0566 43.482 45.2284C42.8313 44.3917 42.5059 43.2043 42.5059 41.6662ZM48.8951 41.6662C48.8951 40.3731 48.6542 39.3801 48.1725 38.6871C47.6992 37.9857 47.04 37.6349 46.1949 37.6349C45.3582 37.6349 44.699 37.9857 44.2173 38.6871C43.744 39.3801 43.5074 40.3731 43.5074 41.6662C43.5074 42.9592 43.744 43.9565 44.2173 44.6579C44.699 45.351 45.3582 45.6975 46.1949 45.6975C47.04 45.6975 47.6992 45.351 48.1725 44.6579C48.6542 43.9565 48.8951 42.9592 48.8951 41.6662ZM58.7328 42.9212C58.7328 44.3157 58.3905 45.2707 57.7059 45.7862C57.1228 46.2426 56.3622 46.4707 55.4241 46.4707C54.5198 46.4707 53.7676 46.2426 53.1676 45.7862C52.483 45.2707 52.1408 44.3157 52.1408 42.9212V37.7997L51.3548 37.6983V37.0391H52.7366C53.0155 37.0391 53.1549 37.1701 53.1549 37.4321V42.8832C53.1549 44.7425 53.9113 45.6721 55.4241 45.6721C56.9538 45.6721 57.7186 44.7425 57.7186 42.8832V37.4321C57.7186 37.1701 57.8581 37.0391 58.1369 37.0391H59.5187V37.6983L58.7328 37.7997V42.9212ZM68.6588 46.2933H67.8221C67.6024 46.2933 67.446 46.2088 67.3531 46.0397L62.9161 38.6491V45.9003C62.9161 46.1623 62.7851 46.2933 62.5232 46.2933H61.116V45.6341L61.902 45.5453V37.7997L61.116 37.6983V37.0391H62.7387C62.9415 37.0391 63.0978 37.1236 63.2077 37.2927L67.6446 44.696V37.4321C67.6446 37.1701 67.7714 37.0391 68.0249 37.0391H69.4448V37.6983L68.6588 37.7997V46.2933ZM70.8769 37.0391H76.6829C76.9449 37.0391 77.0759 37.1701 77.0759 37.4321V39.1562H76.4167L76.3153 37.7363H74.2869V45.5453L75.4279 45.6341V46.2933H72.1319V45.6341L73.2728 45.5453V37.7363H71.2445L71.1431 39.1562H70.4839V37.4321C70.4839 37.1701 70.6149 37.0391 70.8769 37.0391Z" fill="#EFF2F5"/>
<path d="M42.244 70.899H37.3888V70.2272L39.303 70.1257V62.6083L37.1733 63.1154L37.0972 62.4055L39.5692 61.6449H40.3171V70.1257L42.244 70.2272V70.899ZM43.495 66.1959C43.495 64.6916 43.7739 63.5295 44.3317 62.7097C44.8979 61.8815 45.6923 61.4674 46.7149 61.4674C47.746 61.4674 48.5615 61.9111 49.1616 62.7985C49.7616 63.6774 50.0616 64.8691 50.0616 66.3734C50.0616 67.8693 49.7827 69.0313 49.225 69.8595C48.6672 70.6793 47.8728 71.0892 46.8417 71.0892C45.8191 71.0892 45.0035 70.6497 44.395 69.7708C43.795 68.8834 43.495 67.6918 43.495 66.1959ZM49.0602 66.3607C49.0602 65.093 48.8489 64.0915 48.4263 63.3563C48.0122 62.6126 47.4502 62.2407 46.7403 62.2407C46.0304 62.2407 45.4768 62.5872 45.0796 63.2802C44.6908 63.9732 44.4965 64.9493 44.4965 66.2086C44.4965 67.4594 44.7035 68.4566 45.1176 69.2003C45.5402 69.944 46.1064 70.3159 46.8163 70.3159C47.5347 70.3159 48.0883 69.9736 48.477 69.2891C48.8658 68.5961 49.0602 67.6199 49.0602 66.3607ZM51.8761 66.1959C51.8761 64.6916 52.155 63.5295 52.7128 62.7097C53.279 61.8815 54.0735 61.4674 55.0961 61.4674C56.1271 61.4674 56.9427 61.9111 57.5427 62.7985C58.1427 63.6774 58.4428 64.8691 58.4428 66.3734C58.4428 67.8693 58.1639 69.0313 57.6061 69.8595C57.0483 70.6793 56.2539 71.0892 55.2228 71.0892C54.2002 71.0892 53.3847 70.6497 52.7762 69.7708C52.1761 68.8834 51.8761 67.6918 51.8761 66.1959ZM57.4413 66.3607C57.4413 65.093 57.23 64.0915 56.8074 63.3563C56.3933 62.6126 55.8313 62.2407 55.1214 62.2407C54.4115 62.2407 53.8579 62.5872 53.4607 63.2802C53.072 63.9732 52.8776 64.9493 52.8776 66.2086C52.8776 67.4594 53.0847 68.4566 53.4988 69.2003C53.9213 69.944 54.4876 70.3159 55.1975 70.3159C55.9158 70.3159 56.4694 69.9736 56.8581 69.2891C57.2469 68.5961 57.4413 67.6199 57.4413 66.3607ZM61.3221 69.6694C61.5503 69.8131 61.6644 70.0117 61.6644 70.2652V70.3539C61.6559 70.6751 61.5714 71.0005 61.4108 71.3301L61.3094 71.5202C61.1827 71.7315 61.0094 71.9555 60.7897 72.1921L60.7009 72.2935L60.5615 72.4203L60.2953 72.6358L59.9784 72.2808L60.1305 72.1287C60.2995 71.9005 60.4094 71.723 60.4601 71.5963C60.5108 71.4695 60.5361 71.3301 60.5361 71.1779L60.5235 71.0005C60.4897 70.9328 60.4728 70.8652 60.4728 70.7976C60.4559 70.7469 60.4474 70.7173 60.4474 70.7089L60.4094 70.5821C60.384 70.5314 60.3671 70.4849 60.3587 70.4427C60.3587 70.4004 60.3587 70.3244 60.3587 70.2145C60.3587 70.1046 60.4178 69.9609 60.5361 69.7835L60.6629 69.6947L60.777 69.644L60.8024 69.6313C60.8277 69.6313 60.8488 69.6271 60.8657 69.6187L61.0179 69.606H61.0812C61.1235 69.606 61.17 69.6187 61.2207 69.644C61.2714 69.6609 61.3052 69.6694 61.3221 69.6694ZM63.575 66.1959C63.575 64.6916 63.8539 63.5295 64.4117 62.7097C64.9779 61.8815 65.7724 61.4674 66.795 61.4674C67.826 61.4674 68.6416 61.9111 69.2416 62.7985C69.8417 63.6774 70.1417 64.8691 70.1417 66.3734C70.1417 67.8693 69.8628 69.0313 69.305 69.8595C68.7472 70.6793 67.9528 71.0892 66.9217 71.0892C65.8991 71.0892 65.0836 70.6497 64.4751 69.7708C63.8751 68.8834 63.575 67.6918 63.575 66.1959ZM69.1402 66.3607C69.1402 65.093 68.9289 64.0915 68.5064 63.3563C68.0922 62.6126 67.5302 62.2407 66.8203 62.2407C66.1104 62.2407 65.5569 62.5872 65.1596 63.2802C64.7709 63.9732 64.5765 64.9493 64.5765 66.2086C64.5765 67.4594 64.7836 68.4566 65.1977 69.2003C65.6202 69.944 66.1865 70.3159 66.8964 70.3159C67.6147 70.3159 68.1683 69.9736 68.5571 69.2891C68.9458 68.5961 69.1402 67.6199 69.1402 66.3607ZM71.9562 66.1959C71.9562 64.6916 72.2351 63.5295 72.7928 62.7097C73.3591 61.8815 74.1535 61.4674 75.1761 61.4674C76.2072 61.4674 77.0227 61.9111 77.6227 62.7985C78.2228 63.6774 78.5228 64.8691 78.5228 66.3734C78.5228 67.8693 78.2439 69.0313 77.6861 69.8595C77.1283 70.6793 76.3339 71.0892 75.3029 71.0892C74.2803 71.0892 73.4647 70.6497 72.8562 69.7708C72.2562 68.8834 71.9562 67.6918 71.9562 66.1959ZM77.5213 66.3607C77.5213 65.093 77.3101 64.0915 76.8875 63.3563C76.4734 62.6126 75.9114 62.2407 75.2015 62.2407C74.4915 62.2407 73.938 62.5872 73.5408 63.2802C73.152 63.9732 72.9576 64.9493 72.9576 66.2086C72.9576 67.4594 73.1647 68.4566 73.5788 69.2003C74.0014 69.944 74.5676 70.3159 75.2775 70.3159C75.9959 70.3159 76.5494 69.9736 76.9382 69.2891C77.327 68.5961 77.5213 67.6199 77.5213 66.3607ZM80.3373 66.1959C80.3373 64.6916 80.6162 63.5295 81.174 62.7097C81.7402 61.8815 82.5346 61.4674 83.5572 61.4674C84.5883 61.4674 85.4038 61.9111 86.0039 62.7985C86.6039 63.6774 86.9039 64.8691 86.9039 66.3734C86.9039 67.8693 86.625 69.0313 86.0673 69.8595C85.5095 70.6793 84.7151 71.0892 83.684 71.0892C82.6614 71.0892 81.8458 70.6497 81.2374 69.7708C80.6373 68.8834 80.3373 67.6918 80.3373 66.1959ZM85.9025 66.3607C85.9025 65.093 85.6912 64.0915 85.2686 63.3563C84.8545 62.6126 84.2925 62.2407 83.5826 62.2407C82.8727 62.2407 82.3191 62.5872 81.9219 63.2802C81.5331 63.9732 81.3388 64.9493 81.3388 66.2086C81.3388 67.4594 81.5458 68.4566 81.9599 69.2003C82.3825 69.944 82.9487 70.3159 83.6586 70.3159C84.377 70.3159 84.9306 69.9736 85.3193 69.2891C85.7081 68.5961 85.9025 67.6199 85.9025 66.3607Z" fill="#EFF2F5"/>
<path fill-rule="evenodd" clip-rule="evenodd" d="M29.2269 71.9279H28.0737C27.7708 71.9279 27.5553 71.8114 27.4272 71.5784L25.7562 68.795H21.3118V71.3862C21.3118 71.7473 21.1313 71.9279 20.7702 71.9279H18.8307V71.0193L19.914 70.897V68.795H17.1079V67.9003H19.914V63.8744H17.1079V62.9797H19.914V60.2213L18.8307 60.0815V59.1729H21.0672C21.3468 59.1729 21.5623 59.2894 21.7137 59.5224L23.7857 62.9797H27.8291V59.7146C27.8291 59.3535 28.0038 59.1729 28.3533 59.1729H30.3102V60.0815L29.2269 60.2213V62.9797H31.8697V63.8744H29.2269V67.9003H31.8697V68.795H29.2269V71.9279ZM21.3118 67.9003H25.2191L22.8021 63.8744H21.3118V67.9003ZM27.2709 68.795L27.8291 69.7263V68.795H27.2709ZM27.8291 67.9003H26.7347L24.3219 63.8744H27.8291V67.9003ZM21.3118 61.3919L22.265 62.9797H21.3118V61.3919Z" fill="#EFF2F5"/>
<defs>
<radialGradient id="paint0_radial_106_185" cx="0" cy="0" r="1" gradientUnits="userSpaceOnUse" gradientTransform="translate(7.42788 -3.00963) rotate(44.6936) scale(130.959 143.366)">
<stop stop-color="#CD3C67"/>
<stop offset="1" stop-color="#476393"/>
</radialGradient>
</defs>
</svg>
