<svg width="104" height="96" viewBox="0 0 104 96" fill="none" xmlns="http://www.w3.org/2000/svg">
<rect y="0.607697" width="104" height="95" rx="10" fill="url(#paint0_radial_106_242)"/>
<path d="M18.9344 21.2637H22.288C23.2181 21.2637 23.9392 21.4856 24.4512 21.9293C24.9632 22.3645 25.2192 22.9576 25.2192 23.7085C25.2192 24.2546 25.0784 24.7154 24.7968 25.0909C24.5152 25.4664 24.1184 25.7053 23.6064 25.8077C24.2379 25.893 24.7328 26.1405 25.0912 26.5501C25.4496 26.9512 25.6288 27.4504 25.6288 28.0477C25.6288 29.7544 24.6645 30.6077 22.736 30.6077H18.9344V29.9421L19.7408 29.8525V22.0317L18.9344 21.9293V21.2637ZM20.7648 21.9677V29.9037H22.7104C23.9819 29.9037 24.6176 29.285 24.6176 28.0477C24.6176 27.4589 24.4299 27.0024 24.0544 26.6781C23.6789 26.3538 23.1456 26.1917 22.4544 26.1917H21.5712V25.4877H22.4544C23.6235 25.4877 24.208 24.8946 24.208 23.7085C24.208 23.1794 24.0373 22.757 23.696 22.4413C23.3632 22.1256 22.8725 21.9677 22.224 21.9677H20.7648ZM33.4567 23.6829V29.2253C33.4567 29.6946 33.6444 29.9293 34.0199 29.9293C34.2332 29.9293 34.4082 29.9037 34.5447 29.8525L34.6727 30.6205C34.3228 30.7314 33.9943 30.7869 33.6871 30.7869C32.9959 30.7869 32.5948 30.4584 32.4839 29.8013C31.5964 30.4584 30.7474 30.7869 29.9367 30.7869C29.1346 30.7869 28.5671 30.6034 28.2343 30.2365C27.9015 29.861 27.7351 29.2808 27.7351 28.4957V24.0541L26.8391 23.9517V23.2861H28.3111C28.6012 23.2861 28.7463 23.4184 28.7463 23.6829V28.4957C28.7463 29.0333 28.8402 29.4216 29.0279 29.6605C29.2242 29.8994 29.557 30.0189 30.0263 30.0189C30.837 30.0189 31.6476 29.6861 32.4583 29.0205V24.0541L31.6903 23.9517V23.2861H33.0727C33.3287 23.2861 33.4567 23.4184 33.4567 23.6829ZM40.5501 24.3613C39.8845 24.0456 39.2744 23.8877 38.7197 23.8877C38.165 23.8877 37.7512 23.9858 37.4781 24.1821C37.2136 24.3784 37.0813 24.6514 37.0813 25.0013C37.0813 25.3426 37.2178 25.6285 37.4909 25.8589C37.764 26.0808 38.0968 26.2685 38.4893 26.4221C38.8818 26.5757 39.2701 26.7378 39.6541 26.9085C40.0466 27.0792 40.3794 27.3224 40.6525 27.6381C40.9256 27.9538 41.0621 28.3421 41.0621 28.8029C41.0621 29.4258 40.8317 29.9122 40.3709 30.2621C39.9186 30.612 39.317 30.7869 38.5661 30.7869C37.8152 30.7869 37.205 30.6077 36.7357 30.2493C36.2749 29.8824 35.9677 29.3661 35.8141 28.7005L36.6973 28.4957C36.996 29.5197 37.5933 30.0317 38.4893 30.0317C38.9928 30.0317 39.381 29.925 39.6541 29.7117C39.9272 29.4984 40.0637 29.2168 40.0637 28.8669C40.0637 28.5085 39.9272 28.2184 39.6541 27.9965C39.381 27.7746 39.0482 27.5869 38.6557 27.4333C38.2632 27.2797 37.8706 27.1176 37.4781 26.9469C37.0856 26.7762 36.7528 26.5288 36.4797 26.2045C36.2066 25.8802 36.0701 25.4877 36.0701 25.0269C36.0701 24.421 36.3005 23.9517 36.7613 23.6189C37.2221 23.2776 37.8237 23.1069 38.5661 23.1069C39.317 23.1069 40.085 23.2776 40.8701 23.6189L40.5501 24.3613ZM47.0126 24.3613C46.347 24.0456 45.7369 23.8877 45.1822 23.8877C44.6275 23.8877 44.2137 23.9858 43.9406 24.1821C43.6761 24.3784 43.5438 24.6514 43.5438 25.0013C43.5438 25.3426 43.6803 25.6285 43.9534 25.8589C44.2265 26.0808 44.5593 26.2685 44.9518 26.4221C45.3443 26.5757 45.7326 26.7378 46.1166 26.9085C46.5091 27.0792 46.8419 27.3224 47.115 27.6381C47.3881 27.9538 47.5246 28.3421 47.5246 28.8029C47.5246 29.4258 47.2942 29.9122 46.8334 30.2621C46.3811 30.612 45.7795 30.7869 45.0286 30.7869C44.2777 30.7869 43.6675 30.6077 43.1982 30.2493C42.7374 29.8824 42.4302 29.3661 42.2766 28.7005L43.1598 28.4957C43.4585 29.5197 44.0558 30.0317 44.9518 30.0317C45.4553 30.0317 45.8435 29.925 46.1166 29.7117C46.3897 29.4984 46.5262 29.2168 46.5262 28.8669C46.5262 28.5085 46.3897 28.2184 46.1166 27.9965C45.8435 27.7746 45.5107 27.5869 45.1182 27.4333C44.7257 27.2797 44.3331 27.1176 43.9406 26.9469C43.5481 26.7762 43.2153 26.5288 42.9422 26.2045C42.6691 25.8802 42.5326 25.4877 42.5326 25.0269C42.5326 24.421 42.763 23.9517 43.2238 23.6189C43.6846 23.2776 44.2862 23.1069 45.0286 23.1069C45.7795 23.1069 46.5475 23.2776 47.3326 23.6189L47.0126 24.3613ZM50.6975 23.6829V29.2253C50.6975 29.6946 50.8852 29.9293 51.2607 29.9293C51.4058 29.9293 51.5807 29.9037 51.7855 29.8525L51.9135 30.6205C51.5636 30.7314 51.2052 30.7869 50.8383 30.7869C50.0788 30.7869 49.6991 30.3048 49.6991 29.3405V24.0541L48.9311 23.9517V23.2861H50.3135C50.5695 23.2861 50.6975 23.4184 50.6975 23.6829ZM50.2111 22.0957C50.0404 22.0957 49.8868 22.0317 49.7503 21.9037C49.6223 21.7757 49.5583 21.6264 49.5583 21.4557C49.5583 21.2765 49.6223 21.1229 49.7503 20.9949C49.8868 20.8584 50.0404 20.7901 50.2111 20.7901C50.3903 20.7901 50.5439 20.8584 50.6719 20.9949C50.7999 21.1229 50.8639 21.2765 50.8639 21.4557C50.8639 21.6264 50.7999 21.7757 50.6719 21.9037C50.5439 22.0317 50.3903 22.0957 50.2111 22.0957ZM58.85 29.3405V25.3981C58.85 24.8605 58.7519 24.4765 58.5556 24.2461C58.3679 24.0072 58.0393 23.8877 57.57 23.8877C56.7593 23.8877 55.97 24.2034 55.202 24.8349V29.8525L56.098 29.9421V30.6077H53.2948V29.9421L54.1908 29.8525V24.0541L53.2948 23.9517V23.2861H54.6516C54.9161 23.2861 55.0484 23.4141 55.0484 23.6701V24.1693C55.9444 23.461 56.8489 23.1069 57.762 23.1069C58.4959 23.1069 59.0292 23.2946 59.362 23.6701C59.6948 24.0456 59.8612 24.6216 59.8612 25.3981V29.2253C59.8612 29.6946 60.0447 29.9293 60.4116 29.9293C60.5652 29.9293 60.7444 29.9037 60.9492 29.8525L61.0644 30.6205C60.7316 30.7314 60.4031 30.7869 60.0788 30.7869C59.2596 30.7869 58.85 30.3048 58.85 29.3405ZM68.4102 27.1645H63.367C63.367 28.1117 63.6059 28.8498 64.0838 29.3789C64.4593 29.797 64.9713 30.0061 65.6198 30.0061C66.2769 30.0061 66.9809 29.8141 67.7318 29.4301L68.0518 30.1725C67.1899 30.5821 66.4219 30.7869 65.7478 30.7869C65.0822 30.7869 64.5318 30.6802 64.0966 30.4669C63.6699 30.245 63.3329 29.9506 63.0854 29.5837C62.6075 28.8413 62.3686 28.0008 62.3686 27.0621C62.3686 25.9698 62.599 25.0525 63.0598 24.3101C63.2987 23.9346 63.623 23.6402 64.0326 23.4269C64.4507 23.2136 64.9371 23.1069 65.4918 23.1069C66.4049 23.1069 67.1174 23.4184 67.6294 24.0413C68.1499 24.6642 68.4102 25.4962 68.4102 26.5373V27.1645ZM67.399 26.4477C67.399 25.6712 67.2283 25.0525 66.887 24.5917C66.5457 24.1224 66.055 23.8877 65.415 23.8877C64.775 23.8877 64.2929 24.1309 63.9686 24.6173C63.6443 25.1037 63.4523 25.7138 63.3926 26.4477H67.399ZM74.4751 24.3613C73.8095 24.0456 73.1994 23.8877 72.6447 23.8877C72.09 23.8877 71.6762 23.9858 71.4031 24.1821C71.1386 24.3784 71.0063 24.6514 71.0063 25.0013C71.0063 25.3426 71.1428 25.6285 71.4159 25.8589C71.689 26.0808 72.0218 26.2685 72.4143 26.4221C72.8068 26.5757 73.1951 26.7378 73.5791 26.9085C73.9716 27.0792 74.3044 27.3224 74.5775 27.6381C74.8506 27.9538 74.9871 28.3421 74.9871 28.8029C74.9871 29.4258 74.7567 29.9122 74.2959 30.2621C73.8436 30.612 73.242 30.7869 72.4911 30.7869C71.7402 30.7869 71.13 30.6077 70.6607 30.2493C70.1999 29.8824 69.8927 29.3661 69.7391 28.7005L70.6223 28.4957C70.921 29.5197 71.5183 30.0317 72.4143 30.0317C72.9178 30.0317 73.306 29.925 73.5791 29.7117C73.8522 29.4984 73.9887 29.2168 73.9887 28.8669C73.9887 28.5085 73.8522 28.2184 73.5791 27.9965C73.306 27.7746 72.9732 27.5869 72.5807 27.4333C72.1882 27.2797 71.7956 27.1176 71.4031 26.9469C71.0106 26.7762 70.6778 26.5288 70.4047 26.2045C70.1316 25.8802 69.9951 25.4877 69.9951 25.0269C69.9951 24.421 70.2255 23.9517 70.6863 23.6189C71.1471 23.2776 71.7487 23.1069 72.4911 23.1069C73.242 23.1069 74.01 23.2776 74.7951 23.6189L74.4751 24.3613ZM80.9376 24.3613C80.272 24.0456 79.6619 23.8877 79.1072 23.8877C78.5525 23.8877 78.1387 23.9858 77.8656 24.1821C77.6011 24.3784 77.4688 24.6514 77.4688 25.0013C77.4688 25.3426 77.6053 25.6285 77.8784 25.8589C78.1515 26.0808 78.4843 26.2685 78.8768 26.4221C79.2693 26.5757 79.6576 26.7378 80.0416 26.9085C80.4341 27.0792 80.7669 27.3224 81.04 27.6381C81.3131 27.9538 81.4496 28.3421 81.4496 28.8029C81.4496 29.4258 81.2192 29.9122 80.7584 30.2621C80.3061 30.612 79.7045 30.7869 78.9536 30.7869C78.2027 30.7869 77.5925 30.6077 77.1232 30.2493C76.6624 29.8824 76.3552 29.3661 76.2016 28.7005L77.0848 28.4957C77.3835 29.5197 77.9808 30.0317 78.8768 30.0317C79.3803 30.0317 79.7685 29.925 80.0416 29.7117C80.3147 29.4984 80.4512 29.2168 80.4512 28.8669C80.4512 28.5085 80.3147 28.2184 80.0416 27.9965C79.7685 27.7746 79.4357 27.5869 79.0432 27.4333C78.6507 27.2797 78.2581 27.1176 77.8656 26.9469C77.4731 26.7762 77.1403 26.5288 76.8672 26.2045C76.5941 25.8802 76.4576 25.4877 76.4576 25.0269C76.4576 24.421 76.688 23.9517 77.1488 23.6189C77.6096 23.2776 78.2112 23.1069 78.9536 23.1069C79.7045 23.1069 80.4725 23.2776 81.2576 23.6189L80.9376 24.3613ZM18.9856 46.6077H17.9872V45.9421L18.6016 45.8525L21.4304 37.2637H22.7872L25.6288 45.8525L26.2432 45.9421V46.6077H25.2448C25.0144 46.6077 24.8608 46.4968 24.784 46.2749L23.952 43.7405H20.2784L19.4464 46.2749C19.3696 46.4968 19.216 46.6077 18.9856 46.6077ZM22.1472 38.2237H22.0832L20.5344 42.9469H23.696L22.1472 38.2237ZM30.0394 46.7869C29.5018 46.7869 29.0282 46.6717 28.6186 46.4413C28.2175 46.2109 27.9061 45.8994 27.6842 45.5069C27.2405 44.756 27.0186 43.8856 27.0186 42.8957C27.0186 41.6328 27.3471 40.6472 28.0042 39.9389C28.2346 39.6914 28.5375 39.4909 28.913 39.3373C29.2885 39.1837 29.7151 39.1069 30.193 39.1069C30.9695 39.1069 31.7418 39.3032 32.5098 39.6957L32.177 40.4381C31.5285 40.0712 30.8671 39.8877 30.193 39.8877C29.7663 39.8877 29.4037 39.9816 29.105 40.1693C28.8063 40.3485 28.5802 40.596 28.4266 40.9117C28.2815 41.2189 28.1749 41.5346 28.1066 41.8589C28.0469 42.1832 28.017 42.5288 28.017 42.8957C28.017 43.2626 28.0469 43.6125 28.1066 43.9453C28.1663 44.2781 28.2645 44.6066 28.401 44.9309C28.5375 45.2552 28.7466 45.5154 29.0282 45.7117C29.3098 45.908 29.6469 46.0061 30.0394 46.0061C30.9098 46.0061 31.5114 45.5624 31.8442 44.6749L32.6634 44.9437C32.1941 46.1725 31.3194 46.7869 30.0394 46.7869ZM36.9644 46.7869C36.4268 46.7869 35.9532 46.6717 35.5436 46.4413C35.1425 46.2109 34.8311 45.8994 34.6092 45.5069C34.1655 44.756 33.9436 43.8856 33.9436 42.8957C33.9436 41.6328 34.2721 40.6472 34.9292 39.9389C35.1596 39.6914 35.4625 39.4909 35.838 39.3373C36.2135 39.1837 36.6401 39.1069 37.118 39.1069C37.8945 39.1069 38.6668 39.3032 39.4348 39.6957L39.102 40.4381C38.4535 40.0712 37.7921 39.8877 37.118 39.8877C36.6913 39.8877 36.3287 39.9816 36.03 40.1693C35.7313 40.3485 35.5052 40.596 35.3516 40.9117C35.2065 41.2189 35.0999 41.5346 35.0316 41.8589C34.9719 42.1832 34.942 42.5288 34.942 42.8957C34.942 43.2626 34.9719 43.6125 35.0316 43.9453C35.0913 44.2781 35.1895 44.6066 35.326 44.9309C35.4625 45.2552 35.6716 45.5154 35.9532 45.7117C36.2348 45.908 36.5719 46.0061 36.9644 46.0061C37.8348 46.0061 38.4364 45.5624 38.7692 44.6749L39.5884 44.9437C39.1191 46.1725 38.2444 46.7869 36.9644 46.7869ZM40.8686 42.8829C40.8686 41.6797 41.1374 40.7496 41.675 40.0925C42.2211 39.4354 42.9891 39.1069 43.979 39.1069C44.9774 39.1069 45.771 39.461 46.3598 40.1693C46.9486 40.869 47.243 41.8205 47.243 43.0237C47.243 44.2184 46.9699 45.1442 46.4238 45.8013C45.8777 46.4584 45.1054 46.7869 44.107 46.7869C43.1171 46.7869 42.3278 46.437 41.739 45.7373C41.1587 45.029 40.8686 44.0776 40.8686 42.8829ZM46.2318 43.0109C46.2318 42.0466 46.0313 41.2872 45.6302 40.7325C45.2291 40.1693 44.6873 39.8877 44.0046 39.8877C43.3219 39.8877 42.7929 40.148 42.4174 40.6685C42.0505 41.189 41.867 41.9272 41.867 42.8829C41.867 43.8386 42.0675 44.5981 42.4686 45.1613C42.8782 45.7245 43.4201 46.0061 44.0942 46.0061C44.7683 46.0061 45.2931 45.7458 45.6686 45.2253C46.0441 44.7048 46.2318 43.9666 46.2318 43.0109ZM55.2442 39.6829V45.2253C55.2442 45.6946 55.4319 45.9293 55.8074 45.9293C56.0207 45.9293 56.1957 45.9037 56.3322 45.8525L56.4602 46.6205C56.1103 46.7314 55.7818 46.7869 55.4746 46.7869C54.7834 46.7869 54.3823 46.4584 54.2714 45.8013C53.3839 46.4584 52.5349 46.7869 51.7242 46.7869C50.9221 46.7869 50.3546 46.6034 50.0218 46.2365C49.689 45.861 49.5226 45.2808 49.5226 44.4957V40.0541L48.6266 39.9517V39.2861H50.0986C50.3887 39.2861 50.5338 39.4184 50.5338 39.6829V44.4957C50.5338 45.0333 50.6277 45.4216 50.8154 45.6605C51.0117 45.8994 51.3445 46.0189 51.8138 46.0189C52.6245 46.0189 53.4351 45.6861 54.2458 45.0205V40.0541L53.4778 39.9517V39.2861H54.8602C55.1162 39.2861 55.2442 39.4184 55.2442 39.6829ZM63.4 45.3405V41.3981C63.4 40.8605 63.3019 40.4765 63.1056 40.2461C62.9179 40.0072 62.5893 39.8877 62.12 39.8877C61.3093 39.8877 60.52 40.2034 59.752 40.8349V45.8525L60.648 45.9421V46.6077H57.8448V45.9421L58.7408 45.8525V40.0541L57.8448 39.9517V39.2861H59.2016C59.4661 39.2861 59.5984 39.4141 59.5984 39.6701V40.1693C60.4944 39.461 61.3989 39.1069 62.312 39.1069C63.0459 39.1069 63.5792 39.2946 63.912 39.6701C64.2448 40.0456 64.4112 40.6216 64.4112 41.3981V45.2253C64.4112 45.6946 64.5947 45.9293 64.9616 45.9293C65.1152 45.9293 65.2944 45.9037 65.4992 45.8525L65.6144 46.6205C65.2816 46.7314 64.9531 46.7869 64.6288 46.7869C63.8096 46.7869 63.4 46.3048 63.4 45.3405ZM66.6242 39.9901V39.2861H67.7378V37.6221L68.749 37.3917V39.2861H70.1442V39.9901H68.749V45.2253C68.749 45.6861 68.9367 45.9165 69.3122 45.9165C69.5597 45.9165 69.7986 45.8696 70.029 45.7757L70.1442 46.5565C69.7431 46.7101 69.3378 46.7869 68.9282 46.7869C68.5271 46.7869 68.2285 46.6717 68.0322 46.4413C67.8359 46.2024 67.7378 45.8269 67.7378 45.3149V39.9901H66.6242Z" fill="#EFF2F5"/>
<path d="M38.9072 64.8493H37.9472C37.9472 63.9533 38.2032 63.2706 38.7152 62.8013C39.2272 62.3234 39.9397 62.0845 40.8528 62.0845C41.7659 62.0845 42.4741 62.3064 42.9776 62.7501C43.4811 63.1853 43.7328 63.7869 43.7328 64.5549C43.7328 65.084 43.592 65.5789 43.3104 66.0397C43.0373 66.5005 42.6149 67.0338 42.0432 67.6397L39.0864 70.8269H43.8352V71.6077H37.7936V70.8397L41.352 67.0509C41.8384 66.5389 42.184 66.0994 42.3888 65.7325C42.6021 65.357 42.7088 64.9389 42.7088 64.4781C42.7088 64.0173 42.5467 63.6333 42.2224 63.3261C41.8981 63.0189 41.4373 62.8653 40.84 62.8653C40.2512 62.8653 39.7819 63.0402 39.432 63.3901C39.0821 63.7314 38.9072 64.2178 38.9072 64.8493ZM45.5338 66.8589C45.5338 65.34 45.8154 64.1666 46.3786 63.3389C46.9503 62.5026 47.7525 62.0845 48.785 62.0845C49.8261 62.0845 50.6495 62.5325 51.2554 63.4285C51.8613 64.316 52.1642 65.5192 52.1642 67.0381C52.1642 68.5485 51.8826 69.7218 51.3194 70.5581C50.7562 71.3858 49.9541 71.7997 48.913 71.7997C47.8805 71.7997 47.057 71.356 46.4426 70.4685C45.8367 69.5725 45.5338 68.3693 45.5338 66.8589ZM51.153 67.0253C51.153 65.7453 50.9397 64.7341 50.513 63.9917C50.0949 63.2408 49.5274 62.8653 48.8106 62.8653C48.0938 62.8653 47.5349 63.2152 47.1338 63.9149C46.7413 64.6146 46.545 65.6002 46.545 66.8717C46.545 68.1346 46.7541 69.1416 47.1722 69.8925C47.5989 70.6434 48.1706 71.0189 48.8874 71.0189C49.6127 71.0189 50.1717 70.6733 50.5642 69.9821C50.9567 69.2824 51.153 68.2968 51.153 67.0253ZM55.0715 70.3661C55.3019 70.5112 55.4171 70.7117 55.4171 70.9677V71.0573C55.4086 71.3816 55.3232 71.7101 55.1611 72.0429L55.0587 72.2349C54.9307 72.4482 54.7558 72.6744 54.5339 72.9133L54.4443 73.0157L54.3035 73.1437L54.0347 73.3613L53.7147 73.0029L53.8683 72.8493C54.039 72.6189 54.1499 72.4397 54.2011 72.3117C54.2523 72.1837 54.2779 72.0429 54.2779 71.8893L54.2651 71.7101C54.231 71.6418 54.2139 71.5736 54.2139 71.5053C54.1968 71.4541 54.1883 71.4242 54.1883 71.4157L54.1499 71.2877C54.1243 71.2365 54.1072 71.1896 54.0987 71.1469C54.0987 71.1042 54.0987 71.0274 54.0987 70.9165C54.0987 70.8056 54.1584 70.6605 54.2779 70.4813L54.4059 70.3917L54.5211 70.3405L54.5467 70.3277C54.5723 70.3277 54.5936 70.3234 54.6107 70.3149L54.7643 70.3021H54.8283C54.871 70.3021 54.9179 70.3149 54.9691 70.3405C55.0203 70.3576 55.0544 70.3661 55.0715 70.3661ZM57.3463 66.8589C57.3463 65.34 57.6279 64.1666 58.1911 63.3389C58.7628 62.5026 59.565 62.0845 60.5975 62.0845C61.6386 62.0845 62.462 62.5325 63.0679 63.4285C63.6738 64.316 63.9767 65.5192 63.9767 67.0381C63.9767 68.5485 63.6951 69.7218 63.1319 70.5581C62.5687 71.3858 61.7666 71.7997 60.7255 71.7997C59.693 71.7997 58.8695 71.356 58.2551 70.4685C57.6492 69.5725 57.3463 68.3693 57.3463 66.8589ZM62.9655 67.0253C62.9655 65.7453 62.7522 64.7341 62.3255 63.9917C61.9074 63.2408 61.3399 62.8653 60.6231 62.8653C59.9063 62.8653 59.3474 63.2152 58.9463 63.9149C58.5538 64.6146 58.3575 65.6002 58.3575 66.8717C58.3575 68.1346 58.5666 69.1416 58.9847 69.8925C59.4114 70.6434 59.9831 71.0189 60.6999 71.0189C61.4252 71.0189 61.9842 70.6733 62.3767 69.9821C62.7692 69.2824 62.9655 68.2968 62.9655 67.0253ZM65.8088 66.8589C65.8088 65.34 66.0904 64.1666 66.6536 63.3389C67.2253 62.5026 68.0275 62.0845 69.06 62.0845C70.1011 62.0845 70.9245 62.5325 71.5304 63.4285C72.1363 64.316 72.4392 65.5192 72.4392 67.0381C72.4392 68.5485 72.1576 69.7218 71.5944 70.5581C71.0312 71.3858 70.2291 71.7997 69.188 71.7997C68.1555 71.7997 67.332 71.356 66.7176 70.4685C66.1117 69.5725 65.8088 68.3693 65.8088 66.8589ZM71.428 67.0253C71.428 65.7453 71.2147 64.7341 70.788 63.9917C70.3699 63.2408 69.8024 62.8653 69.0856 62.8653C68.3688 62.8653 67.8099 63.2152 67.4088 63.9149C67.0163 64.6146 66.82 65.6002 66.82 66.8717C66.82 68.1346 67.0291 69.1416 67.4472 69.8925C67.8739 70.6434 68.4456 71.0189 69.1624 71.0189C69.8877 71.0189 70.4467 70.6733 70.8392 69.9821C71.2317 69.2824 71.428 68.2968 71.428 67.0253ZM74.2713 66.8589C74.2713 65.34 74.5529 64.1666 75.1161 63.3389C75.6878 62.5026 76.49 62.0845 77.5225 62.0845C78.5636 62.0845 79.387 62.5325 79.9929 63.4285C80.5988 64.316 80.9017 65.5192 80.9017 67.0381C80.9017 68.5485 80.6201 69.7218 80.0569 70.5581C79.4937 71.3858 78.6916 71.7997 77.6505 71.7997C76.618 71.7997 75.7945 71.356 75.1801 70.4685C74.5742 69.5725 74.2713 68.3693 74.2713 66.8589ZM79.8905 67.0253C79.8905 65.7453 79.6772 64.7341 79.2505 63.9917C78.8324 63.2408 78.2649 62.8653 77.5481 62.8653C76.8313 62.8653 76.2724 63.2152 75.8713 63.9149C75.4788 64.6146 75.2825 65.6002 75.2825 66.8717C75.2825 68.1346 75.4916 69.1416 75.9097 69.8925C76.3364 70.6434 76.9081 71.0189 77.6249 71.0189C78.3502 71.0189 78.9092 70.6733 79.3017 69.9821C79.6942 69.2824 79.8905 68.2968 79.8905 67.0253Z" fill="#EFF2F5"/>
<path fill-rule="evenodd" clip-rule="evenodd" d="M29.5398 73.6077H28.3754C28.0696 73.6077 27.8521 73.4901 27.7227 73.2549L25.5342 69.6094H21.5479V73.0608C21.5479 73.4254 21.3656 73.6077 21.001 73.6077H19.0427V72.6903L20.1365 72.5668V69.6094H17.3032V68.7061H20.1365V64.6411H17.3032V63.7377H20.1365V61.7874L19.0427 61.6463V60.7289H21.3009C21.5832 60.7289 21.8008 60.8465 21.9537 61.0818L23.5455 63.7377H28.1285V61.2758C28.1285 60.9112 28.3049 60.7289 28.6577 60.7289H30.6336V61.6463L29.5398 61.7874V63.7377H32.2083V64.6411H29.5398V68.7061H32.2083V69.6094H29.5398V73.6077ZM21.5479 68.7061H24.9919L22.5515 64.6411H21.5479V68.7061ZM27.0645 69.6094L28.1285 71.3848V69.6094H27.0645ZM28.1285 68.7061H26.5231L24.0868 64.6411H28.1285V68.7061ZM21.5479 62.9695L22.0091 63.7377H21.5479V62.9695Z" fill="#EFF2F5"/>
<defs>
<radialGradient id="paint0_radial_106_242" cx="0" cy="0" r="1" gradientUnits="userSpaceOnUse" gradientTransform="translate(7.49999 -2.89231) rotate(44.6936) scale(132.231 144.758)">
<stop stop-color="#CD3C67"/>
<stop offset="1" stop-color="#476393"/>
</radialGradient>
</defs>
</svg>
