<svg width="104" height="95" viewBox="0 0 104 95" fill="none" xmlns="http://www.w3.org/2000/svg">
<rect width="104" height="95" rx="10" fill="url(#paint0_radial_106_251)"/>
<path d="M18.9344 20.656H24.5792C24.8352 20.656 24.9632 20.7883 24.9632 21.0528V22.7552H24.2976L24.208 21.36H20.752V24.9056H24.3872V25.6096H20.752V29.3088H24.3232L24.4256 27.952H25.0912V29.6032C25.0912 29.8677 24.9589 30 24.6944 30H18.9344V29.3344L19.728 29.2448V21.424L18.9344 21.3216V20.656ZM31.8362 22.6784H32.681V23.344L32.1306 23.4336L30.121 26.3648L32.809 30H31.721L29.545 27.056L27.7018 29.744C27.5823 29.9147 27.4202 30 27.2154 30H26.2426V29.3344L26.9082 29.2448L28.9562 26.2496L26.3322 22.6784H27.4202L29.5578 25.584L31.337 22.9472C31.465 22.768 31.6314 22.6784 31.8362 22.6784ZM37.3392 29.3984C38.7131 29.3984 39.4 28.3787 39.4 26.3392C39.4 25.52 39.272 24.8245 39.016 24.2528C38.8795 23.9456 38.6747 23.7067 38.4016 23.536C38.1371 23.3568 37.8213 23.2672 37.4544 23.2672C36.7888 23.2672 36.1616 23.6597 35.5728 24.4448V28.9632C36.1019 29.2533 36.6907 29.3984 37.3392 29.3984ZM33.6656 22.6784H35.0224C35.2869 22.6784 35.4192 22.8064 35.4192 23.0624V23.8688C36.1104 22.9557 36.9083 22.4992 37.8128 22.4992C38.2651 22.4992 38.6661 22.6144 39.016 22.8448C39.3659 23.0752 39.6389 23.3781 39.8352 23.7536C40.2192 24.5045 40.4112 25.3664 40.4112 26.3392C40.4112 27.3291 40.2277 28.1867 39.8608 28.912C39.656 29.3045 39.3531 29.616 38.952 29.8464C38.5509 30.0683 38.0432 30.1792 37.4288 30.1792C36.8229 30.1792 36.2043 30.0256 35.5728 29.7184V32.9056L34.5616 32.9824V23.4464L33.6656 23.344V22.6784ZM48.1602 26.5568H43.117C43.117 27.504 43.3559 28.2421 43.8338 28.7712C44.2093 29.1893 44.7213 29.3984 45.3698 29.3984C46.0269 29.3984 46.7309 29.2064 47.4818 28.8224L47.8018 29.5648C46.9399 29.9744 46.1719 30.1792 45.4978 30.1792C44.8322 30.1792 44.2818 30.0725 43.8466 29.8592C43.4199 29.6373 43.0829 29.3429 42.8354 28.976C42.3575 28.2336 42.1186 27.3931 42.1186 26.4544C42.1186 25.3621 42.349 24.4448 42.8098 23.7024C43.0487 23.3269 43.373 23.0325 43.7826 22.8192C44.2007 22.6059 44.6871 22.4992 45.2418 22.4992C46.1549 22.4992 46.8674 22.8107 47.3794 23.4336C47.8999 24.0565 48.1602 24.8885 48.1602 25.9296V26.5568ZM47.149 25.84C47.149 25.0635 46.9783 24.4448 46.637 23.984C46.2957 23.5147 45.805 23.28 45.165 23.28C44.525 23.28 44.0429 23.5232 43.7186 24.0096C43.3943 24.496 43.2023 25.1061 43.1426 25.84H47.149ZM55.2875 28.7328V24.7904C55.2875 24.2528 55.1894 23.8688 54.9931 23.6384C54.8054 23.3995 54.4768 23.28 54.0075 23.28C53.1968 23.28 52.4075 23.5957 51.6395 24.2272V29.2448L52.5355 29.3344V30H49.7323V29.3344L50.6283 29.2448V23.4464L49.7323 23.344V22.6784H51.0891C51.3536 22.6784 51.4859 22.8064 51.4859 23.0624V23.5616C52.3819 22.8533 53.2864 22.4992 54.1995 22.4992C54.9334 22.4992 55.4667 22.6869 55.7995 23.0624C56.1323 23.4379 56.2987 24.0139 56.2987 24.7904V28.6176C56.2987 29.0869 56.4822 29.3216 56.8491 29.3216C57.0027 29.3216 57.1819 29.296 57.3867 29.2448L57.5019 30.0128C57.1691 30.1237 56.8406 30.1792 56.5163 30.1792C55.6971 30.1792 55.2875 29.6971 55.2875 28.7328ZM63.3501 23.7536C62.6845 23.4379 62.0744 23.28 61.5197 23.28C60.965 23.28 60.5512 23.3781 60.2781 23.5744C60.0136 23.7707 59.8813 24.0437 59.8813 24.3936C59.8813 24.7349 60.0178 25.0208 60.2909 25.2512C60.564 25.4731 60.8968 25.6608 61.2893 25.8144C61.6818 25.968 62.0701 26.1301 62.4541 26.3008C62.8466 26.4715 63.1794 26.7147 63.4525 27.0304C63.7256 27.3461 63.8621 27.7344 63.8621 28.1952C63.8621 28.8181 63.6317 29.3045 63.1709 29.6544C62.7186 30.0043 62.117 30.1792 61.3661 30.1792C60.6152 30.1792 60.005 30 59.5357 29.6416C59.0749 29.2747 58.7677 28.7584 58.6141 28.0928L59.4973 27.888C59.796 28.912 60.3933 29.424 61.2893 29.424C61.7928 29.424 62.181 29.3173 62.4541 29.104C62.7272 28.8907 62.8637 28.6091 62.8637 28.2592C62.8637 27.9008 62.7272 27.6107 62.4541 27.3888C62.181 27.1669 61.8482 26.9792 61.4557 26.8256C61.0632 26.672 60.6706 26.5099 60.2781 26.3392C59.8856 26.1685 59.5528 25.9211 59.2797 25.5968C59.0066 25.2725 58.8701 24.88 58.8701 24.4192C58.8701 23.8133 59.1005 23.344 59.5613 23.0112C60.0221 22.6699 60.6237 22.4992 61.3661 22.4992C62.117 22.4992 62.885 22.6699 63.6701 23.0112L63.3501 23.7536ZM71.3102 26.5568H66.267C66.267 27.504 66.5059 28.2421 66.9838 28.7712C67.3593 29.1893 67.8713 29.3984 68.5198 29.3984C69.1769 29.3984 69.8809 29.2064 70.6318 28.8224L70.9518 29.5648C70.0899 29.9744 69.3219 30.1792 68.6478 30.1792C67.9822 30.1792 67.4318 30.0725 66.9966 29.8592C66.5699 29.6373 66.2329 29.3429 65.9854 28.976C65.5075 28.2336 65.2686 27.3931 65.2686 26.4544C65.2686 25.3621 65.499 24.4448 65.9598 23.7024C66.1987 23.3269 66.523 23.0325 66.9326 22.8192C67.3507 22.6059 67.8371 22.4992 68.3918 22.4992C69.3049 22.4992 70.0174 22.8107 70.5294 23.4336C71.0499 24.0565 71.3102 24.8885 71.3102 25.9296V26.5568ZM70.299 25.84C70.299 25.0635 70.1283 24.4448 69.787 23.984C69.4457 23.5147 68.955 23.28 68.315 23.28C67.675 23.28 67.1929 23.5232 66.8686 24.0096C66.5443 24.496 66.3523 25.1061 66.2926 25.84H70.299ZM18.9856 46H17.9872V45.3344L18.6016 45.2448L21.4304 36.656H22.7872L25.6288 45.2448L26.2432 45.3344V46H25.2448C25.0144 46 24.8608 45.8891 24.784 45.6672L23.952 43.1328H20.2784L19.4464 45.6672C19.3696 45.8891 19.216 46 18.9856 46ZM22.1472 37.616H22.0832L20.5344 42.3392H23.696L22.1472 37.616ZM30.0394 46.1792C29.5018 46.1792 29.0282 46.064 28.6186 45.8336C28.2175 45.6032 27.9061 45.2917 27.6842 44.8992C27.2405 44.1483 27.0186 43.2779 27.0186 42.288C27.0186 41.0251 27.3471 40.0395 28.0042 39.3312C28.2346 39.0837 28.5375 38.8832 28.913 38.7296C29.2885 38.576 29.7151 38.4992 30.193 38.4992C30.9695 38.4992 31.7418 38.6955 32.5098 39.088L32.177 39.8304C31.5285 39.4635 30.8671 39.28 30.193 39.28C29.7663 39.28 29.4037 39.3739 29.105 39.5616C28.8063 39.7408 28.5802 39.9883 28.4266 40.304C28.2815 40.6112 28.1749 40.9269 28.1066 41.2512C28.0469 41.5755 28.017 41.9211 28.017 42.288C28.017 42.6549 28.0469 43.0048 28.1066 43.3376C28.1663 43.6704 28.2645 43.9989 28.401 44.3232C28.5375 44.6475 28.7466 44.9077 29.0282 45.104C29.3098 45.3003 29.6469 45.3984 30.0394 45.3984C30.9098 45.3984 31.5114 44.9547 31.8442 44.0672L32.6634 44.336C32.1941 45.5648 31.3194 46.1792 30.0394 46.1792ZM36.9644 46.1792C36.4268 46.1792 35.9532 46.064 35.5436 45.8336C35.1425 45.6032 34.8311 45.2917 34.6092 44.8992C34.1655 44.1483 33.9436 43.2779 33.9436 42.288C33.9436 41.0251 34.2721 40.0395 34.9292 39.3312C35.1596 39.0837 35.4625 38.8832 35.838 38.7296C36.2135 38.576 36.6401 38.4992 37.118 38.4992C37.8945 38.4992 38.6668 38.6955 39.4348 39.088L39.102 39.8304C38.4535 39.4635 37.7921 39.28 37.118 39.28C36.6913 39.28 36.3287 39.3739 36.03 39.5616C35.7313 39.7408 35.5052 39.9883 35.3516 40.304C35.2065 40.6112 35.0999 40.9269 35.0316 41.2512C34.9719 41.5755 34.942 41.9211 34.942 42.288C34.942 42.6549 34.9719 43.0048 35.0316 43.3376C35.0913 43.6704 35.1895 43.9989 35.326 44.3232C35.4625 44.6475 35.6716 44.9077 35.9532 45.104C36.2348 45.3003 36.5719 45.3984 36.9644 45.3984C37.8348 45.3984 38.4364 44.9547 38.7692 44.0672L39.5884 44.336C39.1191 45.5648 38.2444 46.1792 36.9644 46.1792ZM40.8686 42.2752C40.8686 41.072 41.1374 40.1419 41.675 39.4848C42.2211 38.8277 42.9891 38.4992 43.979 38.4992C44.9774 38.4992 45.771 38.8533 46.3598 39.5616C46.9486 40.2613 47.243 41.2128 47.243 42.416C47.243 43.6107 46.9699 44.5365 46.4238 45.1936C45.8777 45.8507 45.1054 46.1792 44.107 46.1792C43.1171 46.1792 42.3278 45.8293 41.739 45.1296C41.1587 44.4213 40.8686 43.4699 40.8686 42.2752ZM46.2318 42.4032C46.2318 41.4389 46.0313 40.6795 45.6302 40.1248C45.2291 39.5616 44.6873 39.28 44.0046 39.28C43.3219 39.28 42.7929 39.5403 42.4174 40.0608C42.0505 40.5813 41.867 41.3195 41.867 42.2752C41.867 43.2309 42.0675 43.9904 42.4686 44.5536C42.8782 45.1168 43.4201 45.3984 44.0942 45.3984C44.7683 45.3984 45.2931 45.1381 45.6686 44.6176C46.0441 44.0971 46.2318 43.3589 46.2318 42.4032ZM55.2442 39.0752V44.6176C55.2442 45.0869 55.4319 45.3216 55.8074 45.3216C56.0207 45.3216 56.1957 45.296 56.3322 45.2448L56.4602 46.0128C56.1103 46.1237 55.7818 46.1792 55.4746 46.1792C54.7834 46.1792 54.3823 45.8507 54.2714 45.1936C53.3839 45.8507 52.5349 46.1792 51.7242 46.1792C50.9221 46.1792 50.3546 45.9957 50.0218 45.6288C49.689 45.2533 49.5226 44.6731 49.5226 43.888V39.4464L48.6266 39.344V38.6784H50.0986C50.3887 38.6784 50.5338 38.8107 50.5338 39.0752V43.888C50.5338 44.4256 50.6277 44.8139 50.8154 45.0528C51.0117 45.2917 51.3445 45.4112 51.8138 45.4112C52.6245 45.4112 53.4351 45.0784 54.2458 44.4128V39.4464L53.4778 39.344V38.6784H54.8602C55.1162 38.6784 55.2442 38.8107 55.2442 39.0752ZM63.4 44.7328V40.7904C63.4 40.2528 63.3019 39.8688 63.1056 39.6384C62.9179 39.3995 62.5893 39.28 62.12 39.28C61.3093 39.28 60.52 39.5957 59.752 40.2272V45.2448L60.648 45.3344V46H57.8448V45.3344L58.7408 45.2448V39.4464L57.8448 39.344V38.6784H59.2016C59.4661 38.6784 59.5984 38.8064 59.5984 39.0624V39.5616C60.4944 38.8533 61.3989 38.4992 62.312 38.4992C63.0459 38.4992 63.5792 38.6869 63.912 39.0624C64.2448 39.4379 64.4112 40.0139 64.4112 40.7904V44.6176C64.4112 45.0869 64.5947 45.3216 64.9616 45.3216C65.1152 45.3216 65.2944 45.296 65.4992 45.2448L65.6144 46.0128C65.2816 46.1237 64.9531 46.1792 64.6288 46.1792C63.8096 46.1792 63.4 45.6971 63.4 44.7328ZM66.6242 39.3824V38.6784H67.7378V37.0144L68.749 36.784V38.6784H70.1442V39.3824H68.749V44.6176C68.749 45.0784 68.9367 45.3088 69.3122 45.3088C69.5597 45.3088 69.7986 45.2619 70.029 45.168L70.1442 45.9488C69.7431 46.1024 69.3378 46.1792 68.9282 46.1792C68.5271 46.1792 68.2285 46.064 68.0322 45.8336C67.8359 45.5947 67.7378 45.2192 67.7378 44.7072V39.3824H66.6242Z" fill="#EFF2F5"/>
<path d="M39.9072 64.2416H38.9472C38.9472 63.3456 39.2032 62.6629 39.7152 62.1936C40.2272 61.7157 40.9397 61.4768 41.8528 61.4768C42.7659 61.4768 43.4741 61.6987 43.9776 62.1424C44.4811 62.5776 44.7328 63.1792 44.7328 63.9472C44.7328 64.4763 44.592 64.9712 44.3104 65.432C44.0373 65.8928 43.6149 66.4261 43.0432 67.032L40.0864 70.2192H44.8352V71H38.7936V70.232L42.352 66.4432C42.8384 65.9312 43.184 65.4917 43.3888 65.1248C43.6021 64.7493 43.7088 64.3312 43.7088 63.8704C43.7088 63.4096 43.5467 63.0256 43.2224 62.7184C42.8981 62.4112 42.4373 62.2576 41.84 62.2576C41.2512 62.2576 40.7819 62.4325 40.432 62.7824C40.0821 63.1237 39.9072 63.6101 39.9072 64.2416ZM46.5338 66.2512C46.5338 64.7323 46.8154 63.5589 47.3786 62.7312C47.9503 61.8949 48.7525 61.4768 49.785 61.4768C50.8261 61.4768 51.6495 61.9248 52.2554 62.8208C52.8613 63.7083 53.1642 64.9115 53.1642 66.4304C53.1642 67.9408 52.8826 69.1141 52.3194 69.9504C51.7562 70.7781 50.9541 71.192 49.913 71.192C48.8805 71.192 48.057 70.7483 47.4426 69.8608C46.8367 68.9648 46.5338 67.7616 46.5338 66.2512ZM52.153 66.4176C52.153 65.1376 51.9397 64.1264 51.513 63.384C51.0949 62.6331 50.5274 62.2576 49.8106 62.2576C49.0938 62.2576 48.5349 62.6075 48.1338 63.3072C47.7413 64.0069 47.545 64.9925 47.545 66.264C47.545 67.5269 47.7541 68.5339 48.1722 69.2848C48.5989 70.0357 49.1706 70.4112 49.8874 70.4112C50.6127 70.4112 51.1717 70.0656 51.5642 69.3744C51.9567 68.6747 52.153 67.6891 52.153 66.4176ZM56.0715 69.7584C56.3019 69.9035 56.4171 70.104 56.4171 70.36V70.4496C56.4086 70.7739 56.3232 71.1024 56.1611 71.4352L56.0587 71.6272C55.9307 71.8405 55.7558 72.0667 55.5339 72.3056L55.4443 72.408L55.3035 72.536L55.0347 72.7536L54.7147 72.3952L54.8683 72.2416C55.039 72.0112 55.1499 71.832 55.2011 71.704C55.2523 71.576 55.2779 71.4352 55.2779 71.2816L55.2651 71.1024C55.231 71.0341 55.2139 70.9659 55.2139 70.8976C55.1968 70.8464 55.1883 70.8165 55.1883 70.808L55.1499 70.68C55.1243 70.6288 55.1072 70.5819 55.0987 70.5392C55.0987 70.4965 55.0987 70.4197 55.0987 70.3088C55.0987 70.1979 55.1584 70.0528 55.2779 69.8736L55.4059 69.784L55.5211 69.7328L55.5467 69.72C55.5723 69.72 55.5936 69.7157 55.6107 69.7072L55.7643 69.6944H55.8283C55.871 69.6944 55.9179 69.7072 55.9691 69.7328C56.0203 69.7499 56.0544 69.7584 56.0715 69.7584ZM58.3463 66.2512C58.3463 64.7323 58.6279 63.5589 59.1911 62.7312C59.7628 61.8949 60.565 61.4768 61.5975 61.4768C62.6386 61.4768 63.462 61.9248 64.0679 62.8208C64.6738 63.7083 64.9767 64.9115 64.9767 66.4304C64.9767 67.9408 64.6951 69.1141 64.1319 69.9504C63.5687 70.7781 62.7666 71.192 61.7255 71.192C60.693 71.192 59.8695 70.7483 59.2551 69.8608C58.6492 68.9648 58.3463 67.7616 58.3463 66.2512ZM63.9655 66.4176C63.9655 65.1376 63.7522 64.1264 63.3255 63.384C62.9074 62.6331 62.3399 62.2576 61.6231 62.2576C60.9063 62.2576 60.3474 62.6075 59.9463 63.3072C59.5538 64.0069 59.3575 64.9925 59.3575 66.264C59.3575 67.5269 59.5666 68.5339 59.9847 69.2848C60.4114 70.0357 60.9831 70.4112 61.6999 70.4112C62.4252 70.4112 62.9842 70.0656 63.3767 69.3744C63.7692 68.6747 63.9655 67.6891 63.9655 66.4176ZM66.8088 66.2512C66.8088 64.7323 67.0904 63.5589 67.6536 62.7312C68.2253 61.8949 69.0275 61.4768 70.06 61.4768C71.1011 61.4768 71.9245 61.9248 72.5304 62.8208C73.1363 63.7083 73.4392 64.9115 73.4392 66.4304C73.4392 67.9408 73.1576 69.1141 72.5944 69.9504C72.0312 70.7781 71.2291 71.192 70.188 71.192C69.1555 71.192 68.332 70.7483 67.7176 69.8608C67.1117 68.9648 66.8088 67.7616 66.8088 66.2512ZM72.428 66.4176C72.428 65.1376 72.2147 64.1264 71.788 63.384C71.3699 62.6331 70.8024 62.2576 70.0856 62.2576C69.3688 62.2576 68.8099 62.6075 68.4088 63.3072C68.0163 64.0069 67.82 64.9925 67.82 66.264C67.82 67.5269 68.0291 68.5339 68.4472 69.2848C68.8739 70.0357 69.4456 70.4112 70.1624 70.4112C70.8877 70.4112 71.4467 70.0656 71.8392 69.3744C72.2317 68.6747 72.428 67.6891 72.428 66.4176ZM75.2713 66.2512C75.2713 64.7323 75.5529 63.5589 76.1161 62.7312C76.6878 61.8949 77.49 61.4768 78.5225 61.4768C79.5636 61.4768 80.387 61.9248 80.9929 62.8208C81.5988 63.7083 81.9017 64.9115 81.9017 66.4304C81.9017 67.9408 81.6201 69.1141 81.0569 69.9504C80.4937 70.7781 79.6916 71.192 78.6505 71.192C77.618 71.192 76.7945 70.7483 76.1801 69.8608C75.5742 68.9648 75.2713 67.7616 75.2713 66.2512ZM80.8905 66.4176C80.8905 65.1376 80.6772 64.1264 80.2505 63.384C79.8324 62.6331 79.2649 62.2576 78.5481 62.2576C77.8313 62.2576 77.2724 62.6075 76.8713 63.3072C76.4788 64.0069 76.2825 64.9925 76.2825 66.264C76.2825 67.5269 76.4916 68.5339 76.9097 69.2848C77.3364 70.0357 77.9081 70.4112 78.6249 70.4112C79.3502 70.4112 79.9092 70.0656 80.3017 69.3744C80.6942 68.6747 80.8905 67.6891 80.8905 66.4176Z" fill="#EFF2F5"/>
<path fill-rule="evenodd" clip-rule="evenodd" d="M30.5398 73H29.3754C29.0696 73 28.8521 72.8824 28.7227 72.6472L26.5342 69.0017H22.5479V72.4531C22.5479 72.8177 22.3656 73 22.001 73H20.0427V72.0826L21.1365 71.9591V69.0017H18.3032V68.0984H21.1365V64.0334H18.3032V63.13H21.1365V61.1797L20.0427 61.0386V60.1212H22.3009C22.5832 60.1212 22.8008 60.2388 22.9537 60.4741L24.5455 63.13H29.1285V60.6681C29.1285 60.3035 29.3049 60.1212 29.6577 60.1212H31.6336V61.0386L30.5398 61.1797V63.13H33.2083V64.0334H30.5398V68.0984H33.2083V69.0017H30.5398V73ZM22.5479 68.0984H25.9919L23.5515 64.0334H22.5479V68.0984ZM28.0645 69.0017L29.1285 70.7771V69.0017H28.0645ZM29.1285 68.0984H27.5231L25.0868 64.0334H29.1285V68.0984ZM22.5479 62.3618L23.0091 63.13H22.5479V62.3618Z" fill="#EFF2F5"/>
<defs>
<radialGradient id="paint0_radial_106_251" cx="0" cy="0" r="1" gradientUnits="userSpaceOnUse" gradientTransform="translate(7.49999 -3.50001) rotate(44.6936) scale(132.231 144.758)">
<stop stop-color="#CD3C67"/>
<stop offset="1" stop-color="#476393"/>
</radialGradient>
</defs>
</svg>
