<svg width="103" height="95" viewBox="0 0 103 95" fill="none" xmlns="http://www.w3.org/2000/svg">
<rect y="0.456726" width="103" height="94.0865" rx="9.90385" fill="url(#paint0_radial_106_260)"/>
<path d="M23.671 22.2434C22.8596 21.8378 22.1413 21.6349 21.5159 21.6349C20.8905 21.6349 20.413 21.7744 20.0834 22.0533C19.7622 22.3237 19.6017 22.6956 19.6017 23.1688C19.6017 23.6337 19.7622 24.0182 20.0834 24.3224C20.4045 24.6267 20.7933 24.876 21.2497 25.0704C21.706 25.2563 22.1582 25.4549 22.6061 25.6662C23.0625 25.8775 23.4512 26.1817 23.7724 26.5789C24.0935 26.9677 24.2541 27.4452 24.2541 28.0114C24.2541 28.7805 23.9879 29.3848 23.4555 29.8242C22.923 30.2552 22.2385 30.4707 21.4018 30.4707C20.5651 30.4707 19.8848 30.2468 19.3608 29.7989C18.8368 29.3425 18.4861 28.7087 18.3086 27.8973L19.196 27.6818C19.5425 29.0256 20.2524 29.6975 21.3257 29.6975C21.9342 29.6975 22.4033 29.5496 22.7329 29.2538C23.0709 28.958 23.24 28.5439 23.24 28.0114C23.24 27.4198 22.9315 26.9466 22.3145 26.5916C22.0441 26.4395 21.7441 26.2958 21.4145 26.1606C21.0849 26.0169 20.751 25.8648 20.413 25.7042C20.0834 25.5352 19.7792 25.3493 19.5003 25.1464C19.2298 24.9436 19.0101 24.6774 18.8411 24.3478C18.672 24.0182 18.5875 23.6379 18.5875 23.2069C18.5875 22.4632 18.8453 21.8885 19.3608 21.4828C19.8848 21.0687 20.5567 20.8616 21.3764 20.8616C22.2047 20.8616 23.0752 21.0687 23.9879 21.4828L23.671 22.2434ZM29.8436 29.0383V28.8608C29.2943 29.9341 28.4323 30.4707 27.2575 30.4707C26.6913 30.4707 26.2392 30.2975 25.9011 29.951C25.5631 29.6045 25.394 29.1312 25.394 28.5312C25.394 27.7114 25.7321 27.0945 26.4082 26.6803C27.0843 26.2662 28.2294 26.0592 29.8436 26.0592V25.5267C29.8436 24.7999 29.7126 24.3013 29.4507 24.0309C29.1887 23.7604 28.7619 23.6252 28.1703 23.6252C27.5871 23.6252 26.9322 23.828 26.2054 24.2337L25.8758 23.4731C26.7462 23.0674 27.5745 22.8646 28.3604 22.8646C29.5859 22.8646 30.3507 23.2956 30.655 24.1576C30.7817 24.5126 30.8451 24.9436 30.8451 25.4507V28.9242C30.8451 29.389 31.0226 29.6214 31.3775 29.6214C31.4959 29.6214 31.6691 29.596 31.8973 29.5453L32.0114 30.3059C31.6818 30.4158 31.3606 30.4707 31.0479 30.4707C30.2451 30.4707 29.8436 29.9932 29.8436 29.0383ZM29.8436 26.7057C27.5111 26.7057 26.3448 27.2888 26.3448 28.4551C26.3448 28.8439 26.4504 29.1481 26.6617 29.3679C26.8815 29.5791 27.1857 29.6848 27.5745 29.6848C28.183 29.6848 28.7069 29.4397 29.1464 28.9495C29.5859 28.4593 29.8183 27.7621 29.8436 26.8578V26.7057ZM38.4551 23.0421H39.4566V23.7013L38.8354 23.8027L36.6043 30.2933H35.5014L32.7378 23.0421H33.7393L36.0465 29.2664L37.9861 23.3717C38.0621 23.1519 38.2185 23.0421 38.4551 23.0421ZM42.225 23.4351V28.9242C42.225 29.389 42.411 29.6214 42.7828 29.6214C42.9265 29.6214 43.0997 29.596 43.3026 29.5453L43.4293 30.3059C43.0828 30.4158 42.7279 30.4707 42.3645 30.4707C41.6123 30.4707 41.2362 29.9932 41.2362 29.0383V23.8027L40.4756 23.7013V23.0421H41.8447C42.0983 23.0421 42.225 23.1731 42.225 23.4351ZM41.7433 21.8631C41.5743 21.8631 41.4222 21.7997 41.2869 21.673C41.1602 21.5462 41.0968 21.3983 41.0968 21.2293C41.0968 21.0518 41.1602 20.8997 41.2869 20.7729C41.4222 20.6377 41.5743 20.5701 41.7433 20.5701C41.9208 20.5701 42.0729 20.6377 42.1997 20.7729C42.3264 20.8997 42.3898 21.0518 42.3898 21.2293C42.3898 21.3983 42.3264 21.5462 42.1997 21.673C42.0729 21.7997 41.9208 21.8631 41.7433 21.8631ZM50.2991 29.0383V25.1338C50.2991 24.6013 50.2019 24.221 50.0076 23.9928C49.8216 23.7562 49.4963 23.6379 49.0314 23.6379C48.2286 23.6379 47.4468 23.9506 46.6862 24.576V29.5453L47.5736 29.6341V30.2933H44.7974V29.6341L45.6847 29.5453V23.8027L44.7974 23.7013V23.0421H46.1411C46.4031 23.0421 46.5341 23.1688 46.5341 23.4224V23.9168C47.4215 23.2153 48.3173 22.8646 49.2216 22.8646C49.9484 22.8646 50.4766 23.0505 50.8062 23.4224C51.1358 23.7942 51.3006 24.3647 51.3006 25.1338V28.9242C51.3006 29.389 51.4823 29.6214 51.8457 29.6214C51.9978 29.6214 52.1753 29.596 52.3782 29.5453L52.4922 30.3059C52.1626 30.4158 51.8373 30.4707 51.5161 30.4707C50.7048 30.4707 50.2991 29.9932 50.2991 29.0383ZM56.7757 22.8646C57.1475 22.8646 57.4982 22.9238 57.8278 23.0421H59.8308V23.7393H58.842C59.2308 24.2126 59.4251 24.8295 59.4251 25.5901C59.4251 26.3507 59.197 26.955 58.7406 27.4029C58.2927 27.8424 57.6377 28.0621 56.7757 28.0621C56.277 28.0621 55.8333 27.9649 55.4446 27.7706L54.7727 28.4551C54.5783 28.6495 54.4811 28.8481 54.4811 29.0509C54.4811 29.3298 54.6586 29.4693 55.0136 29.4693H57.7771C58.3941 29.4693 58.9054 29.6298 59.311 29.951C59.7167 30.2637 59.9195 30.6947 59.9195 31.244C59.9195 31.9117 59.6449 32.4272 59.0955 32.7906C58.5547 33.1625 57.7856 33.3484 56.7883 33.3484C55.7995 33.3484 55.0136 33.1963 54.4304 32.892C53.8557 32.5962 53.5684 32.123 53.5684 31.4722C53.5684 31.2356 53.6276 30.9863 53.7459 30.7243C53.8642 30.4623 54.0205 30.2552 54.2149 30.1031C53.7839 29.9425 53.5684 29.6552 53.5684 29.2411C53.5684 28.827 53.7966 28.396 54.253 27.948L54.8614 27.3649C54.3713 26.8916 54.1262 26.2493 54.1262 25.438C54.1262 24.6182 54.3501 23.9844 54.7981 23.5365C55.2544 23.0886 55.9136 22.8646 56.7757 22.8646ZM58.487 25.5014C58.487 24.9098 58.3307 24.445 58.018 24.1069C57.7138 23.7604 57.2912 23.5872 56.7503 23.5872C56.2179 23.5872 55.8038 23.7478 55.508 24.0689C55.2122 24.39 55.0643 24.8506 55.0643 25.4507C55.0643 26.0423 55.2206 26.5113 55.5333 26.8578C55.8545 27.2043 56.2813 27.3776 56.8137 27.3776C57.3461 27.3776 57.756 27.2128 58.0434 26.8832C58.3391 26.5536 58.487 26.093 58.487 25.5014ZM57.7138 30.2299H54.9629C54.6586 30.5933 54.5065 30.9736 54.5065 31.3708C54.5065 31.7765 54.7135 32.0849 55.1277 32.2962C55.5418 32.516 56.0784 32.6258 56.7376 32.6258C58.242 32.6258 58.9941 32.161 58.9941 31.2314C58.9941 30.9018 58.88 30.6524 58.6518 30.4834C58.4237 30.3144 58.111 30.2299 57.7138 30.2299ZM65.6007 24.1069C64.9415 23.7942 64.3372 23.6379 63.7879 23.6379C63.2385 23.6379 62.8287 23.7351 62.5582 23.9295C62.2962 24.1238 62.1652 24.3943 62.1652 24.7408C62.1652 25.0788 62.3005 25.3619 62.5709 25.5901C62.8413 25.8099 63.1709 25.9958 63.5597 26.1479C63.9485 26.3 64.333 26.4606 64.7133 26.6296C65.1021 26.7987 65.4317 27.0395 65.7021 27.3522C65.9725 27.6649 66.1078 28.0495 66.1078 28.5058C66.1078 29.1228 65.8796 29.6045 65.4232 29.951C64.9753 30.2975 64.3795 30.4707 63.6358 30.4707C62.892 30.4707 62.2878 30.2933 61.823 29.9383C61.3666 29.5749 61.0623 29.0636 60.9102 28.4044L61.7849 28.2016C62.0807 29.2157 62.6723 29.7228 63.5597 29.7228C64.0583 29.7228 64.4429 29.6172 64.7133 29.4059C64.9837 29.1946 65.119 28.9157 65.119 28.5692C65.119 28.2143 64.9837 27.9269 64.7133 27.7072C64.4429 27.4874 64.1133 27.3015 63.7245 27.1494C63.3357 26.9973 62.947 26.8367 62.5582 26.6677C62.1695 26.4986 61.8399 26.2536 61.5694 25.9324C61.299 25.6113 61.1638 25.2225 61.1638 24.7661C61.1638 24.1661 61.3919 23.7013 61.8483 23.3717C62.3047 23.0336 62.9005 22.8646 63.6358 22.8646C64.3795 22.8646 65.1401 23.0336 65.9176 23.3717L65.6007 24.1069ZM18.803 46.2933H17.8142V45.6341L18.4227 45.5453L21.2243 37.0391H22.5681L25.3824 45.5453L25.9908 45.6341V46.2933H25.002C24.7739 46.2933 24.6217 46.1834 24.5457 45.9637L23.7217 43.4536H20.0834L19.2594 45.9637C19.1833 46.1834 19.0312 46.2933 18.803 46.2933ZM21.9342 37.9899H21.8708L20.3369 42.6677H23.4681L21.9342 37.9899ZM29.7505 46.4707C29.2181 46.4707 28.7491 46.3567 28.3434 46.1285C27.9462 45.9003 27.6377 45.5918 27.418 45.2031C26.9785 44.4593 26.7588 43.5973 26.7588 42.617C26.7588 41.3662 27.0842 40.39 27.7349 39.6886C27.9631 39.4435 28.2631 39.2449 28.635 39.0928C29.0068 38.9407 29.4294 38.8646 29.9027 38.8646C30.6717 38.8646 31.4366 39.059 32.1972 39.4477L31.8676 40.183C31.2253 39.8196 30.5703 39.6379 29.9027 39.6379C29.4801 39.6379 29.1209 39.7308 28.8251 39.9168C28.5293 40.0943 28.3054 40.3393 28.1532 40.652C28.0096 40.9563 27.9039 41.269 27.8363 41.5901C27.7772 41.9113 27.7476 42.2536 27.7476 42.617C27.7476 42.9804 27.7772 43.3269 27.8363 43.6565C27.8955 43.9861 27.9927 44.3114 28.1279 44.6326C28.2631 44.9537 28.4702 45.2115 28.7491 45.4059C29.028 45.6003 29.3618 45.6975 29.7505 45.6975C30.6126 45.6975 31.2084 45.258 31.538 44.3791L32.3493 44.6453C31.8845 45.8623 31.0182 46.4707 29.7505 46.4707ZM36.609 46.4707C36.0765 46.4707 35.6075 46.3567 35.2018 46.1285C34.8046 45.9003 34.4961 45.5918 34.2764 45.2031C33.8369 44.4593 33.6172 43.5973 33.6172 42.617C33.6172 41.3662 33.9426 40.39 34.5933 39.6886C34.8215 39.4435 35.1215 39.2449 35.4934 39.0928C35.8652 38.9407 36.2878 38.8646 36.7611 38.8646C37.5301 38.8646 38.295 39.059 39.0556 39.4477L38.726 40.183C38.0837 39.8196 37.4287 39.6379 36.7611 39.6379C36.3385 39.6379 35.9793 39.7308 35.6835 39.9168C35.3877 40.0943 35.1638 40.3393 35.0117 40.652C34.868 40.9563 34.7623 41.269 34.6947 41.5901C34.6356 41.9113 34.606 42.2536 34.606 42.617C34.606 42.9804 34.6356 43.3269 34.6947 43.6565C34.7539 43.9861 34.8511 44.3114 34.9863 44.6326C35.1215 44.9537 35.3286 45.2115 35.6075 45.4059C35.8864 45.6003 36.2202 45.6975 36.609 45.6975C37.471 45.6975 38.0668 45.258 38.3964 44.3791L39.2077 44.6453C38.7429 45.8623 37.8766 46.4707 36.609 46.4707ZM40.4756 42.6043C40.4756 41.4127 40.7418 40.4915 41.2743 39.8407C41.8151 39.19 42.5758 38.8646 43.5561 38.8646C44.5449 38.8646 45.3309 39.2153 45.914 39.9168C46.4972 40.6098 46.7887 41.5521 46.7887 42.7437C46.7887 43.9269 46.5183 44.8439 45.9774 45.4946C45.4365 46.1454 44.6717 46.4707 43.6829 46.4707C42.7025 46.4707 41.9208 46.1242 41.3376 45.4312C40.763 44.7298 40.4756 43.7875 40.4756 42.6043ZM45.7872 42.7311C45.7872 41.7761 45.5886 41.0239 45.1914 40.4746C44.7942 39.9168 44.2576 39.6379 43.5815 39.6379C42.9054 39.6379 42.3814 39.8956 42.0095 40.4112C41.6461 40.9267 41.4644 41.6577 41.4644 42.6043C41.4644 43.5508 41.663 44.303 42.0602 44.8608C42.4659 45.4186 43.0025 45.6975 43.6702 45.6975C44.3378 45.6975 44.8576 45.4397 45.2295 44.9242C45.6013 44.4086 45.7872 43.6776 45.7872 42.7311ZM54.713 39.4351V44.9242C54.713 45.389 54.8989 45.6214 55.2708 45.6214C55.4821 45.6214 55.6553 45.596 55.7905 45.5453L55.9173 46.3059C55.5708 46.4158 55.2454 46.4707 54.9412 46.4707C54.2566 46.4707 53.8594 46.1454 53.7495 45.4946C52.8706 46.1454 52.0297 46.4707 51.2268 46.4707C50.4324 46.4707 49.8704 46.289 49.5408 45.9256C49.2112 45.5538 49.0464 44.9791 49.0464 44.2016V39.8027L48.159 39.7013V39.0421H49.6169C49.9042 39.0421 50.0479 39.1731 50.0479 39.4351V44.2016C50.0479 44.734 50.1408 45.1185 50.3268 45.3552C50.5212 45.5918 50.8508 45.7101 51.3156 45.7101C52.1184 45.7101 52.9213 45.3805 53.7242 44.7213V39.8027L52.9636 39.7013V39.0421H54.3327C54.5862 39.0421 54.713 39.1731 54.713 39.4351ZM62.7904 45.0383V41.1338C62.7904 40.6013 62.6932 40.221 62.4988 39.9928C62.3129 39.7562 61.9875 39.6379 61.5227 39.6379C60.7198 39.6379 59.9381 39.9506 59.1774 40.576V45.5453L60.0648 45.6341V46.2933H57.2886V45.6341L58.176 45.5453V39.8027L57.2886 39.7013V39.0421H58.6323C58.8943 39.0421 59.0253 39.1688 59.0253 39.4224V39.9168C59.9127 39.2153 60.8085 38.8646 61.7128 38.8646C62.4396 38.8646 62.9678 39.0505 63.2974 39.4224C63.627 39.7942 63.7918 40.3647 63.7918 41.1338V44.9242C63.7918 45.389 63.9735 45.6214 64.337 45.6214C64.4891 45.6214 64.6666 45.596 64.8694 45.5453L64.9835 46.3059C64.6539 46.4158 64.3285 46.4707 64.0074 46.4707C63.196 46.4707 62.7904 45.9932 62.7904 45.0383ZM65.9836 39.7393V39.0421H67.0865V37.3941L68.0879 37.1659V39.0421H69.4697V39.7393H68.0879V44.9242C68.0879 45.3805 68.2739 45.6087 68.6457 45.6087C68.8908 45.6087 69.1274 45.5622 69.3556 45.4693L69.4697 46.2426C69.0725 46.3947 68.6711 46.4707 68.2654 46.4707C67.8682 46.4707 67.5724 46.3567 67.378 46.1285C67.1836 45.8918 67.0865 45.52 67.0865 45.0129V39.7393H65.9836Z" fill="#EFF2F5"/>
<path d="M38.5043 64.2056H37.5536C37.5536 63.3182 37.8071 62.6421 38.3142 62.1773C38.8213 61.704 39.5269 61.4674 40.4312 61.4674C41.3355 61.4674 42.037 61.6871 42.5356 62.1266C43.0342 62.5576 43.2835 63.1534 43.2835 63.9141C43.2835 64.438 43.1441 64.9282 42.8652 65.3846C42.5948 65.8409 42.1764 66.3692 41.6102 66.9692L38.6818 70.1257H43.385V70.899H37.4014V70.1384L40.9256 66.3861C41.4074 65.879 41.7496 65.4437 41.9525 65.0803C42.1637 64.7085 42.2694 64.2944 42.2694 63.838C42.2694 63.3816 42.1088 63.0013 41.7877 62.6971C41.4665 62.3928 41.0101 62.2407 40.4186 62.2407C39.8354 62.2407 39.3706 62.414 39.0241 62.7605C38.6776 63.0985 38.5043 63.5802 38.5043 64.2056ZM45.0672 66.1959C45.0672 64.6916 45.3461 63.5295 45.9039 62.7097C46.4701 61.8815 47.2646 61.4674 48.2872 61.4674C49.3182 61.4674 50.1338 61.9111 50.7338 62.7985C51.3338 63.6774 51.6339 64.8691 51.6339 66.3734C51.6339 67.8693 51.355 69.0313 50.7972 69.8595C50.2394 70.6793 49.445 71.0892 48.4139 71.0892C47.3913 71.0892 46.5758 70.6497 45.9673 69.7708C45.3672 68.8834 45.0672 67.6918 45.0672 66.1959ZM50.6324 66.3607C50.6324 65.093 50.4211 64.0915 49.9985 63.3563C49.5844 62.6126 49.0224 62.2407 48.3125 62.2407C47.6026 62.2407 47.049 62.5872 46.6518 63.2802C46.2631 63.9732 46.0687 64.9493 46.0687 66.2086C46.0687 67.4594 46.2758 68.4566 46.6899 69.2003C47.1124 69.944 47.6787 70.3159 48.3886 70.3159C49.1069 70.3159 49.6605 69.9736 50.0493 69.2891C50.438 68.5961 50.6324 67.6199 50.6324 66.3607ZM54.5132 69.6694C54.7414 69.8131 54.8555 70.0117 54.8555 70.2652V70.3539C54.847 70.6751 54.7625 71.0005 54.602 71.3301L54.5005 71.5202C54.3738 71.7315 54.2005 71.9555 53.9808 72.1921L53.892 72.2935L53.7526 72.4203L53.4864 72.6358L53.1695 72.2808L53.3216 72.1287C53.4906 71.9005 53.6005 71.723 53.6512 71.5963C53.7019 71.4695 53.7272 71.3301 53.7272 71.1779L53.7146 71.0005C53.6808 70.9328 53.6639 70.8652 53.6639 70.7976C53.647 70.7469 53.6385 70.7173 53.6385 70.7089L53.6005 70.5821C53.5751 70.5314 53.5582 70.4849 53.5498 70.4427C53.5498 70.4004 53.5498 70.3244 53.5498 70.2145C53.5498 70.1046 53.6089 69.9609 53.7272 69.7835L53.854 69.6947L53.9681 69.644L53.9935 69.6313C54.0188 69.6313 54.0399 69.6271 54.0568 69.6187L54.209 69.606H54.2724C54.3146 69.606 54.3611 69.6187 54.4118 69.644C54.4625 69.6609 54.4963 69.6694 54.5132 69.6694ZM56.7661 66.1959C56.7661 64.6916 57.045 63.5295 57.6028 62.7097C58.1691 61.8815 58.9635 61.4674 59.9861 61.4674C61.0171 61.4674 61.8327 61.9111 62.4327 62.7985C63.0328 63.6774 63.3328 64.8691 63.3328 66.3734C63.3328 67.8693 63.0539 69.0313 62.4961 69.8595C61.9383 70.6793 61.1439 71.0892 60.1128 71.0892C59.0902 71.0892 58.2747 70.6497 57.6662 69.7708C57.0662 68.8834 56.7661 67.6918 56.7661 66.1959ZM62.3313 66.3607C62.3313 65.093 62.12 64.0915 61.6975 63.3563C61.2834 62.6126 60.7213 62.2407 60.0114 62.2407C59.3015 62.2407 58.748 62.5872 58.3508 63.2802C57.962 63.9732 57.7676 64.9493 57.7676 66.2086C57.7676 67.4594 57.9747 68.4566 58.3888 69.2003C58.8114 69.944 59.3776 70.3159 60.0875 70.3159C60.8059 70.3159 61.3594 69.9736 61.7482 69.2891C62.1369 68.5961 62.3313 67.6199 62.3313 66.3607ZM65.1473 66.1959C65.1473 64.6916 65.4262 63.5295 65.9839 62.7097C66.5502 61.8815 67.3446 61.4674 68.3672 61.4674C69.3983 61.4674 70.2138 61.9111 70.8139 62.7985C71.4139 63.6774 71.7139 64.8691 71.7139 66.3734C71.7139 67.8693 71.435 69.0313 70.8772 69.8595C70.3195 70.6793 69.525 71.0892 68.494 71.0892C67.4714 71.0892 66.6558 70.6497 66.0473 69.7708C65.4473 68.8834 65.1473 67.6918 65.1473 66.1959ZM70.7124 66.3607C70.7124 65.093 70.5012 64.0915 70.0786 63.3563C69.6645 62.6126 69.1025 62.2407 68.3926 62.2407C67.6827 62.2407 67.1291 62.5872 66.7319 63.2802C66.3431 63.9732 66.1487 64.9493 66.1487 66.2086C66.1487 67.4594 66.3558 68.4566 66.7699 69.2003C67.1925 69.944 67.7587 70.3159 68.4686 70.3159C69.187 70.3159 69.7405 69.9736 70.1293 69.2891C70.5181 68.5961 70.7124 67.6199 70.7124 66.3607ZM73.5284 66.1959C73.5284 64.6916 73.8073 63.5295 74.3651 62.7097C74.9313 61.8815 75.7257 61.4674 76.7483 61.4674C77.7794 61.4674 78.5949 61.9111 79.195 62.7985C79.795 63.6774 80.095 64.8691 80.095 66.3734C80.095 67.8693 79.8162 69.0313 79.2584 69.8595C78.7006 70.6793 77.9062 71.0892 76.8751 71.0892C75.8525 71.0892 75.037 70.6497 74.4285 69.7708C73.8284 68.8834 73.5284 67.6918 73.5284 66.1959ZM79.0936 66.3607C79.0936 65.093 78.8823 64.0915 78.4597 63.3563C78.0456 62.6126 77.4836 62.2407 76.7737 62.2407C76.0638 62.2407 75.5102 62.5872 75.113 63.2802C74.7243 63.9732 74.5299 64.9493 74.5299 66.2086C74.5299 67.4594 74.7369 68.4566 75.151 69.2003C75.5736 69.944 76.1398 70.3159 76.8498 70.3159C77.5681 70.3159 78.1217 69.9736 78.5104 69.2891C78.8992 68.5961 79.0936 67.6199 79.0936 66.3607Z" fill="#EFF2F5"/>
<path fill-rule="evenodd" clip-rule="evenodd" d="M29.2269 71.9279H28.0737C27.7708 71.9279 27.5553 71.8114 27.4272 71.5784L25.7562 68.795H21.3118V71.3862C21.3118 71.7473 21.1313 71.9279 20.7702 71.9279H18.8307V71.0193L19.914 70.897V68.795H17.1079V67.9003H19.914V63.8744H17.1079V62.9797H19.914V60.2213L18.8307 60.0815V59.1729H21.0672C21.3468 59.1729 21.5623 59.2894 21.7137 59.5224L23.7857 62.9797H27.8291V59.7146C27.8291 59.3535 28.0038 59.1729 28.3533 59.1729H30.3102V60.0815L29.2269 60.2213V62.9797H31.8697V63.8744H29.2269V67.9003H31.8697V68.795H29.2269V71.9279ZM21.3118 67.9003H25.2191L22.8021 63.8744H21.3118V67.9003ZM27.2709 68.795L27.8291 69.7263V68.795H27.2709ZM27.8291 67.9003H26.7347L24.3219 63.8744H27.8291V67.9003ZM21.3118 61.3919L22.265 62.9797H21.3118V61.3919Z" fill="#EFF2F5"/>
<defs>
<radialGradient id="paint0_radial_106_260" cx="0" cy="0" r="1" gradientUnits="userSpaceOnUse" gradientTransform="translate(7.42788 -3.00963) rotate(44.6936) scale(130.959 143.366)">
<stop stop-color="#CD3C67"/>
<stop offset="1" stop-color="#476393"/>
</radialGradient>
</defs>
</svg>
