<svg width="104" height="96" viewBox="0 0 104 96" fill="none" xmlns="http://www.w3.org/2000/svg">
<rect x="0.47998" y="0.611511" width="103.52" height="94.5616" rx="9.95385" fill="url(#paint0_radial_106_278)"/>
<path d="M18.9301 21.6991H24.5488C24.8037 21.6991 24.9311 21.8308 24.9311 22.0941V23.7886H24.2685L24.1793 22.3999H20.7393V25.9291H24.3577V26.6299H20.7393V30.312H24.294L24.3959 28.9615H25.0585V30.605C25.0585 30.8683 24.9268 31 24.6635 31H18.9301V30.3375L19.72 30.2483V22.4636L18.9301 22.3617V21.6991ZM32.1163 30.6305V25.8144C32.1163 25.2793 32.0187 24.8971 31.8233 24.6678C31.6364 24.4299 31.3094 24.311 30.8423 24.311C30.1288 24.311 29.4238 24.6253 28.7273 25.2538V30.2483L29.6191 30.3375V31H26.8289V30.3375L27.7207 30.2483V24.4766L26.8289 24.3747V23.7122H28.1794C28.4427 23.7122 28.5744 23.8396 28.5744 24.0944V24.5913C29.3813 23.8863 30.2264 23.5338 31.1098 23.5338C32.0017 23.5338 32.5963 23.8608 32.8935 24.5149C33.692 23.8608 34.4777 23.5338 35.2506 23.5338C36.0321 23.5338 36.5884 23.7207 36.9197 24.0944C37.2509 24.4682 37.4166 25.0415 37.4166 25.8144V29.624C37.4166 30.0911 37.5992 30.3247 37.9644 30.3247C38.1853 30.3247 38.3636 30.2992 38.4996 30.2483L38.6142 31.0127C38.283 31.1232 37.9559 31.1784 37.6332 31.1784C36.8178 31.1784 36.41 30.6985 36.41 29.7386V25.8144C36.41 25.2793 36.3124 24.8971 36.117 24.6678C35.9301 24.4299 35.6031 24.311 35.1359 24.311C34.4479 24.311 33.7599 24.5913 33.0719 25.1519C33.1059 25.4237 33.1229 25.6446 33.1229 25.8144V30.2483L34.002 30.3375V31H32.5113C32.248 31 32.1163 30.8768 32.1163 30.6305ZM45.9058 27.5727H40.8859C40.8859 28.5155 41.1237 29.2502 41.5994 29.7769C41.9731 30.1931 42.4828 30.4012 43.1283 30.4012C43.7823 30.4012 44.4831 30.2101 45.2305 29.8278L45.5491 30.5668C44.6912 30.9745 43.9267 31.1784 43.2557 31.1784C42.5932 31.1784 42.0453 31.0722 41.6121 30.8598C41.1874 30.639 40.8519 30.346 40.6056 29.9807C40.1299 29.2418 39.8921 28.4051 39.8921 27.4708C39.8921 26.3835 40.1214 25.4704 40.5801 24.7315C40.8179 24.3577 41.1407 24.0647 41.5484 23.8523C41.9646 23.64 42.4488 23.5338 43.0009 23.5338C43.9097 23.5338 44.619 23.8438 45.1286 24.4639C45.6467 25.084 45.9058 25.9121 45.9058 26.9484V27.5727ZM44.8993 26.8592C44.8993 26.0862 44.7294 25.4704 44.3896 25.0118C44.0499 24.5446 43.5615 24.311 42.9244 24.311C42.2874 24.311 41.8075 24.5531 41.4847 25.0372C41.1619 25.5214 40.9708 26.1287 40.9114 26.8592H44.8993ZM49.3691 27.4325V30.2483L50.6431 30.3375V31H47.4707V30.3375L48.3625 30.2483V24.4766L47.4707 24.3747V23.7122H48.8212C49.0845 23.7122 49.2162 23.8438 49.2162 24.1072V25.687C49.4455 25.101 49.7895 24.6041 50.2482 24.1963C50.7153 23.7801 51.2759 23.5593 51.93 23.5338V24.4129C51.2165 24.4384 50.6092 24.7272 50.108 25.2793C49.6154 25.8314 49.3691 26.5492 49.3691 27.4325ZM55.7519 23.5338C56.1256 23.5338 56.4781 23.5933 56.8094 23.7122H58.8224V24.4129H57.8286C58.2194 24.8886 58.4147 25.5087 58.4147 26.2731C58.4147 27.0376 58.1854 27.6449 57.7267 28.0951C57.2765 28.5368 56.6182 28.7576 55.7519 28.7576C55.2507 28.7576 54.8048 28.6599 54.4141 28.4646L53.7388 29.1526C53.5434 29.3479 53.4458 29.5475 53.4458 29.7514C53.4458 30.0317 53.6241 30.1718 53.9809 30.1718H56.7584C57.3785 30.1718 57.8923 30.3332 58.3 30.656C58.7078 30.9703 58.9116 31.4035 58.9116 31.9556C58.9116 32.6266 58.6356 33.1447 58.0834 33.51C57.5398 33.8837 56.7669 34.0706 55.7646 34.0706C54.7708 34.0706 53.9809 33.9177 53.3948 33.6119C52.8172 33.3146 52.5284 32.8389 52.5284 32.1849C52.5284 31.9471 52.5879 31.6965 52.7068 31.4332C52.8257 31.1699 52.9828 30.9618 53.1782 30.8089C52.745 30.6475 52.5284 30.3587 52.5284 29.9425C52.5284 29.5263 52.7577 29.0931 53.2164 28.6429L53.828 28.0568C53.3353 27.5812 53.089 26.9356 53.089 26.1202C53.089 25.2963 53.3141 24.6593 53.7643 24.2091C54.2229 23.7589 54.8855 23.5338 55.7519 23.5338ZM57.4719 26.1839C57.4719 25.5894 57.3147 25.1222 57.0005 24.7824C56.6947 24.4342 56.27 24.26 55.7264 24.26C55.1913 24.26 54.7751 24.4214 54.4778 24.7442C54.1805 25.067 54.0318 25.5299 54.0318 26.133C54.0318 26.7275 54.189 27.199 54.5032 27.5472C54.826 27.8955 55.255 28.0696 55.7901 28.0696C56.3252 28.0696 56.7372 27.904 57.026 27.5727C57.3232 27.2414 57.4719 26.7785 57.4719 26.1839ZM56.6947 30.9363H53.9299C53.6241 31.3015 53.4712 31.6838 53.4712 32.083C53.4712 32.4907 53.6793 32.8007 54.0955 33.0131C54.5117 33.2339 55.0511 33.3443 55.7136 33.3443C57.2256 33.3443 57.9815 32.8772 57.9815 31.9428C57.9815 31.6116 57.8669 31.361 57.6375 31.1911C57.4082 31.0212 57.0939 30.9363 56.6947 30.9363ZM66.1121 27.5727H61.0922C61.0922 28.5155 61.33 29.2502 61.8057 29.7769C62.1794 30.1931 62.6891 30.4012 63.3346 30.4012C63.9886 30.4012 64.6894 30.2101 65.4369 29.8278L65.7554 30.5668C64.8975 30.9745 64.133 31.1784 63.462 31.1784C62.7995 31.1784 62.2516 31.0722 61.8184 30.8598C61.3937 30.639 61.0582 30.346 60.8119 29.9807C60.3362 29.2418 60.0984 28.4051 60.0984 27.4708C60.0984 26.3835 60.3277 25.4704 60.7864 24.7315C61.0242 24.3577 61.347 24.0647 61.7547 23.8523C62.1709 23.64 62.6551 23.5338 63.2072 23.5338C64.116 23.5338 64.8253 23.8438 65.3349 24.4639C65.8531 25.084 66.1121 25.9121 66.1121 26.9484V27.5727ZM65.1056 26.8592C65.1056 26.0862 64.9357 25.4704 64.596 25.0118C64.2562 24.5446 63.7678 24.311 63.1307 24.311C62.4937 24.311 62.0138 24.5531 61.691 25.0372C61.3683 25.5214 61.1771 26.1287 61.1177 26.8592H65.1056ZM73.2065 29.7386V25.8144C73.2065 25.2793 73.1088 24.8971 72.9135 24.6678C72.7266 24.4299 72.3996 24.311 71.9324 24.311C71.1255 24.311 70.3398 24.6253 69.5754 25.2538V30.2483L70.4672 30.3375V31H67.677V30.3375L68.5688 30.2483V24.4766L67.677 24.3747V23.7122H69.0275C69.2908 23.7122 69.4225 23.8396 69.4225 24.0944V24.5913C70.3143 23.8863 71.2147 23.5338 72.1236 23.5338C72.854 23.5338 73.3849 23.7207 73.7162 24.0944C74.0474 24.4682 74.2131 25.0415 74.2131 25.8144V29.624C74.2131 30.0911 74.3957 30.3247 74.7609 30.3247C74.9138 30.3247 75.0922 30.2992 75.296 30.2483L75.4107 31.0127C75.0794 31.1232 74.7524 31.1784 74.4297 31.1784C73.6142 31.1784 73.2065 30.6985 73.2065 29.7386ZM79.7157 31.1784C79.1806 31.1784 78.7092 31.0637 78.3015 30.8344C77.9023 30.605 77.5923 30.295 77.3714 29.9043C76.9297 29.1568 76.7089 28.2904 76.7089 27.3051C76.7089 26.048 77.0359 25.067 77.6899 24.362C77.9193 24.1157 78.2208 23.916 78.5945 23.7632C78.9683 23.6103 79.393 23.5338 79.8686 23.5338C80.6416 23.5338 81.4103 23.7292 82.1747 24.1199L81.8435 24.8589C81.1979 24.4936 80.5397 24.311 79.8686 24.311C79.4439 24.311 79.0829 24.4044 78.7857 24.5913C78.4884 24.7697 78.2633 25.016 78.1104 25.3303C77.966 25.6361 77.8598 25.9503 77.7919 26.2731C77.7324 26.5959 77.7027 26.9399 77.7027 27.3051C77.7027 27.6704 77.7324 28.0186 77.7919 28.3499C77.8513 28.6812 77.949 29.0082 78.0849 29.3309C78.2208 29.6537 78.4289 29.9128 78.7092 30.1081C78.9895 30.3035 79.325 30.4012 79.7157 30.4012C80.5821 30.4012 81.181 29.9595 81.5122 29.0761L82.3276 29.3437C81.8605 30.5668 80.9898 31.1784 79.7157 31.1784ZM86.4941 32.3505C86.2648 33.0046 86.0057 33.4548 85.7169 33.7011C85.4366 33.9559 85.0544 34.0833 84.5702 34.0833C84.0946 34.0833 83.6614 33.9686 83.2707 33.7393L83.551 33.0003C83.8652 33.1787 84.1795 33.2679 84.4938 33.2679C84.9949 33.2679 85.3432 33.0003 85.5386 32.4652L85.9463 31.3058L83.0541 23.7122H84.0733L86.3922 29.9552L88.3288 24.0435C88.4053 23.8226 88.5624 23.7122 88.8002 23.7122H89.8195V24.3875L89.1952 24.4894L86.4941 32.3505ZM18.9811 47H17.9873V46.3375L18.5988 46.2483L21.4146 37.6991H22.7651L25.5936 46.2483L26.2052 46.3375V47H25.2114C24.982 47 24.8291 46.8896 24.7527 46.6687L23.9245 44.146H20.2679L19.4397 46.6687C19.3633 46.8896 19.2104 47 18.9811 47ZM22.1281 38.6547H22.0644L20.5227 43.3561H23.6697L22.1281 38.6547ZM29.9838 47.1784C29.4487 47.1784 28.9773 47.0637 28.5696 46.8344C28.1704 46.605 27.8603 46.295 27.6395 45.9043C27.1978 45.1568 26.977 44.2904 26.977 43.3051C26.977 42.048 27.304 41.067 27.958 40.362C28.1874 40.1157 28.4889 39.916 28.8626 39.7632C29.2364 39.6103 29.6611 39.5338 30.1367 39.5338C30.9097 39.5338 31.6784 39.7292 32.4428 40.1199L32.1116 40.8589C31.466 40.4936 30.8077 40.311 30.1367 40.311C29.712 40.311 29.351 40.4044 29.0537 40.5913C28.7565 40.7697 28.5314 41.016 28.3785 41.3303C28.2341 41.6361 28.1279 41.9503 28.06 42.2731C28.0005 42.5959 27.9708 42.9399 27.9708 43.3051C27.9708 43.6704 28.0005 44.0186 28.06 44.3499C28.1194 44.6812 28.2171 45.0082 28.353 45.3309C28.4889 45.6537 28.697 45.9128 28.9773 46.1081C29.2576 46.3035 29.5931 46.4012 29.9838 46.4012C30.8502 46.4012 31.449 45.9595 31.7803 45.0761L32.5957 45.3437C32.1286 46.5668 31.2579 47.1784 29.9838 47.1784ZM36.8769 47.1784C36.3418 47.1784 35.8703 47.0637 35.4626 46.8344C35.0634 46.605 34.7534 46.295 34.5325 45.9043C34.0909 45.1568 33.87 44.2904 33.87 43.3051C33.87 42.048 34.197 41.067 34.8511 40.362C35.0804 40.1157 35.3819 39.916 35.7557 39.7632C36.1294 39.6103 36.5541 39.5338 37.0298 39.5338C37.8027 39.5338 38.5714 39.7292 39.3359 40.1199L39.0046 40.8589C38.3591 40.4936 37.7008 40.311 37.0298 40.311C36.6051 40.311 36.2441 40.4044 35.9468 40.5913C35.6495 40.7697 35.4244 41.016 35.2715 41.3303C35.1271 41.6361 35.0209 41.9503 34.953 42.2731C34.8935 42.5959 34.8638 42.9399 34.8638 43.3051C34.8638 43.6704 34.8935 44.0186 34.953 44.3499C35.0125 44.6812 35.1101 45.0082 35.246 45.3309C35.3819 45.6537 35.59 45.9128 35.8703 46.1081C36.1506 46.3035 36.4862 46.4012 36.8769 46.4012C37.7433 46.4012 38.3421 45.9595 38.6733 45.0761L39.4888 45.3437C39.0216 46.5668 38.151 47.1784 36.8769 47.1784ZM40.7631 43.2924C40.7631 42.0947 41.0306 41.1689 41.5657 40.5149C42.1093 39.8608 42.8738 39.5338 43.8591 39.5338C44.8529 39.5338 45.6428 39.8863 46.2289 40.5913C46.815 41.2878 47.108 42.2349 47.108 43.4325C47.108 44.6217 46.8362 45.5433 46.2926 46.1973C45.749 46.8514 44.9803 47.1784 43.9865 47.1784C43.0012 47.1784 42.2155 46.8301 41.6294 46.1336C41.0519 45.4286 40.7631 44.4815 40.7631 43.2924ZM46.1015 43.4198C46.1015 42.46 45.9019 41.704 45.5027 41.1519C45.1035 40.5913 44.5641 40.311 43.8846 40.311C43.2051 40.311 42.6784 40.5701 42.3047 41.0882C41.9395 41.6063 41.7568 42.3411 41.7568 43.2924C41.7568 44.2437 41.9565 44.9997 42.3557 45.5603C42.7634 46.1209 43.3027 46.4012 43.9738 46.4012C44.6448 46.4012 45.1672 46.1421 45.5409 45.624C45.9146 45.1058 46.1015 44.3711 46.1015 43.4198ZM55.0723 40.1072V45.624C55.0723 46.0911 55.2592 46.3247 55.6329 46.3247C55.8453 46.3247 56.0194 46.2992 56.1553 46.2483L56.2827 47.0127C55.9344 47.1232 55.6074 47.1784 55.3016 47.1784C54.6136 47.1784 54.2144 46.8514 54.104 46.1973C53.2206 46.8514 52.3755 47.1784 51.5686 47.1784C50.7701 47.1784 50.2053 46.9958 49.874 46.6305C49.5427 46.2568 49.3771 45.6792 49.3771 44.8977V40.4766L48.4853 40.3747V39.7122H49.9505C50.2393 39.7122 50.3837 39.8438 50.3837 40.1072V44.8977C50.3837 45.4329 50.4771 45.8193 50.664 46.0572C50.8593 46.295 51.1906 46.4139 51.6577 46.4139C52.4647 46.4139 53.2716 46.0827 54.0785 45.4201V40.4766L53.3141 40.3747V39.7122H54.6901C54.9449 39.7122 55.0723 39.8438 55.0723 40.1072ZM63.1905 45.7386V41.8144C63.1905 41.2793 63.0928 40.8971 62.8974 40.6678C62.7106 40.4299 62.3835 40.311 61.9164 40.311C61.1095 40.311 60.3238 40.6253 59.5593 41.2538V46.2483L60.4512 46.3375V47H57.6609V46.3375L58.5528 46.2483V40.4766L57.6609 40.3747V39.7122H59.0114C59.2748 39.7122 59.4064 39.8396 59.4064 40.0944V40.5913C60.2983 39.8863 61.1986 39.5338 62.1075 39.5338C62.838 39.5338 63.3688 39.7207 63.7001 40.0944C64.0314 40.4682 64.197 41.0415 64.197 41.8144V45.624C64.197 46.0911 64.3796 46.3247 64.7449 46.3247C64.8978 46.3247 65.0761 46.2992 65.28 46.2483L65.3947 47.0127C65.0634 47.1232 64.7364 47.1784 64.4136 47.1784C63.5982 47.1784 63.1905 46.6985 63.1905 45.7386ZM66.3998 40.4129V39.7122H67.5082V38.0559L68.5148 37.8265V39.7122H69.9035V40.4129H68.5148V45.624C68.5148 46.0827 68.7016 46.312 69.0754 46.312C69.3217 46.312 69.5595 46.2653 69.7889 46.1718L69.9035 46.949C69.5043 47.1019 69.1009 47.1784 68.6932 47.1784C68.2939 47.1784 67.9967 47.0637 67.8013 46.8344C67.6059 46.5965 67.5082 46.2228 67.5082 45.7132V40.4129H66.3998Z" fill="#EFF2F5"/>
<path d="M39.1938 64.6166H38.2382C38.2382 63.7248 38.4931 63.0453 39.0027 62.5781C39.5123 62.1024 40.2216 61.8646 41.1304 61.8646C42.0393 61.8646 42.7443 62.0854 43.2454 62.5271C43.7466 62.9603 43.9971 63.5591 43.9971 64.3236C43.9971 64.8502 43.857 65.3429 43.5767 65.8015C43.3049 66.2602 42.8844 66.7911 42.3153 67.3942L39.3722 70.5666H44.0991V71.3438H38.0853V70.5794L41.6273 66.8081C42.1115 66.2984 42.4555 65.861 42.6593 65.4958C42.8717 65.122 42.9779 64.7058 42.9779 64.2471C42.9779 63.7885 42.8165 63.4062 42.4937 63.1005C42.1709 62.7947 41.7123 62.6418 41.1177 62.6418C40.5316 62.6418 40.0644 62.8159 39.7162 63.1642C39.3679 63.5039 39.1938 63.9881 39.1938 64.6166ZM45.7898 66.617C45.7898 65.105 46.0701 63.9371 46.6307 63.1132C47.1998 62.2808 47.9983 61.8646 49.026 61.8646C50.0623 61.8646 50.8819 62.3105 51.485 63.2024C52.0881 64.0858 52.3896 65.2834 52.3896 66.7953C52.3896 68.2988 52.1093 69.4667 51.5487 70.2991C50.9881 71.123 50.1897 71.535 49.1534 71.535C48.1257 71.535 47.306 71.0933 46.6944 70.2099C46.0914 69.318 45.7898 68.1204 45.7898 66.617ZM51.3831 66.7826C51.3831 65.5085 51.1707 64.502 50.746 63.763C50.3298 63.0155 49.765 62.6418 49.0515 62.6418C48.338 62.6418 47.7817 62.99 47.3824 63.6865C46.9917 64.383 46.7964 65.3641 46.7964 66.6297C46.7964 67.8868 47.0045 68.8891 47.4207 69.6366C47.8454 70.384 48.4145 70.7578 49.1279 70.7578C49.8499 70.7578 50.4063 70.4138 50.797 69.7257C51.1877 69.0292 51.3831 68.0482 51.3831 66.7826ZM55.2835 70.108C55.5128 70.2524 55.6275 70.452 55.6275 70.7068V70.796C55.619 71.1188 55.5341 71.4458 55.3727 71.777L55.2708 71.9681C55.1434 72.1805 54.9692 72.4056 54.7484 72.6434L54.6592 72.7453L54.5191 72.8728L54.2515 73.0893L53.933 72.7326L54.0859 72.5797C54.2557 72.3504 54.3662 72.172 54.4171 72.0446C54.4681 71.9172 54.4936 71.777 54.4936 71.6241L54.4808 71.4458C54.4469 71.3778 54.4299 71.3099 54.4299 71.2419C54.4129 71.191 54.4044 71.1612 54.4044 71.1527L54.3662 71.0253C54.3407 70.9744 54.3237 70.9276 54.3152 70.8852C54.3152 70.8427 54.3152 70.7663 54.3152 70.6558C54.3152 70.5454 54.3747 70.401 54.4936 70.2226L54.621 70.1335L54.7356 70.0825L54.7611 70.0697C54.7866 70.0697 54.8078 70.0655 54.8248 70.057L54.9777 70.0443H55.0414C55.0839 70.0443 55.1306 70.057 55.1816 70.0825C55.2325 70.0995 55.2665 70.108 55.2835 70.108ZM57.5478 66.617C57.5478 65.105 57.8281 63.9371 58.3887 63.1132C58.9578 62.2808 59.7562 61.8646 60.784 61.8646C61.8203 61.8646 62.6399 62.3105 63.243 63.2024C63.8461 64.0858 64.1476 65.2834 64.1476 66.7953C64.1476 68.2988 63.8673 69.4667 63.3067 70.2991C62.7461 71.123 61.9477 71.535 60.9114 71.535C59.8836 71.535 59.064 71.0933 58.4524 70.2099C57.8493 69.318 57.5478 68.1204 57.5478 66.617ZM63.1411 66.7826C63.1411 65.5085 62.9287 64.502 62.504 63.763C62.0878 63.0155 61.523 62.6418 60.8095 62.6418C60.096 62.6418 59.5396 62.99 59.1404 63.6865C58.7497 64.383 58.5543 65.3641 58.5543 66.6297C58.5543 67.8868 58.7624 68.8891 59.1786 69.6366C59.6033 70.384 60.1724 70.7578 60.8859 70.7578C61.6079 70.7578 62.1643 70.4138 62.555 69.7257C62.9457 69.0292 63.1411 68.0482 63.1411 66.7826ZM65.9713 66.617C65.9713 65.105 66.2516 63.9371 66.8122 63.1132C67.3812 62.2808 68.1797 61.8646 69.2074 61.8646C70.2437 61.8646 71.0634 62.3105 71.6664 63.2024C72.2695 64.0858 72.5711 65.2834 72.5711 66.7953C72.5711 68.2988 72.2908 69.4667 71.7302 70.2991C71.1696 71.123 70.3711 71.535 69.3349 71.535C68.3071 71.535 67.4874 71.0933 66.8759 70.2099C66.2728 69.318 65.9713 68.1204 65.9713 66.617ZM71.5645 66.7826C71.5645 65.5085 71.3522 64.502 70.9275 63.763C70.5113 63.0155 69.9464 62.6418 69.2329 62.6418C68.5194 62.6418 67.9631 62.99 67.5639 63.6865C67.1731 64.383 66.9778 65.3641 66.9778 66.6297C66.9778 67.8868 67.1859 68.8891 67.6021 69.6366C68.0268 70.384 68.5959 70.7578 69.3094 70.7578C70.0314 70.7578 70.5877 70.4138 70.9784 69.7257C71.3692 69.0292 71.5645 68.0482 71.5645 66.7826ZM74.3947 66.617C74.3947 65.105 74.675 63.9371 75.2356 63.1132C75.8047 62.2808 76.6031 61.8646 77.6309 61.8646C78.6672 61.8646 79.4868 62.3105 80.0899 63.2024C80.693 64.0858 80.9945 65.2834 80.9945 66.7953C80.9945 68.2988 80.7142 69.4667 80.1536 70.2991C79.593 71.123 78.7946 71.535 77.7583 71.535C76.7305 71.535 75.9109 71.0933 75.2993 70.2099C74.6962 69.318 74.3947 68.1204 74.3947 66.617ZM79.988 66.7826C79.988 65.5085 79.7756 64.502 79.3509 63.763C78.9347 63.0155 78.3699 62.6418 77.6564 62.6418C76.9429 62.6418 76.3865 62.99 75.9873 63.6865C75.5966 64.383 75.4012 65.3641 75.4012 66.6297C75.4012 67.8868 75.6093 68.8891 76.0255 69.6366C76.4502 70.384 77.0193 70.7578 77.7328 70.7578C78.4548 70.7578 79.0112 70.4138 79.4019 69.7257C79.7926 69.0292 79.988 68.0482 79.988 66.7826Z" fill="#EFF2F5"/>
<path fill-rule="evenodd" clip-rule="evenodd" d="M29.8693 73.3577H28.7103C28.4059 73.3577 28.1894 73.2406 28.0606 73.0065L25.8323 69.2948H21.9143V72.8133C21.9143 73.1762 21.7329 73.3577 21.3699 73.3577H19.4207V72.4445L20.5095 72.3216V69.2948H17.6892V68.3956H20.5095V64.3494H17.6892V63.4502H20.5095V61.592L19.4207 61.4515V60.5383H21.6685C21.9494 60.5383 22.166 60.6554 22.3182 60.8896L23.8529 63.4502H28.4645V61.0827C28.4645 60.7198 28.6401 60.5383 28.9913 60.5383H30.9581V61.4515L29.8693 61.592V63.4502H32.5255V64.3494H29.8693V68.3956H32.5255V69.2948H29.8693V73.3577ZM21.9143 68.3956H25.2925L22.8634 64.3494H21.9143V68.3956ZM27.3556 69.2948L28.4645 71.145V69.2948H27.3556ZM28.4645 68.3956H26.8167L24.3917 64.3494H28.4645V68.3956ZM21.9143 62.7686L22.3235 63.4502H21.9143V62.7686Z" fill="#EFF2F5"/>
<defs>
<radialGradient id="paint0_radial_106_278" cx="0" cy="0" r="1" gradientUnits="userSpaceOnUse" gradientTransform="translate(7.94536 -2.87234) rotate(44.6936) scale(131.621 144.09)">
<stop stop-color="#CD3C67"/>
<stop offset="1" stop-color="#476393"/>
</radialGradient>
</defs>
</svg>
