<svg width="104" height="95" viewBox="0 0 104 95" fill="none" xmlns="http://www.w3.org/2000/svg">
<rect x="0.47998" y="0.219208" width="103.52" height="94.5616" rx="9.95385" fill="url(#paint0_radial_106_269)"/>
<path d="M21.5292 30H18.9301V29.3375L19.72 29.2483V21.4636L18.9301 21.3617V20.6991H21.5292V21.3617L20.7393 21.4636V29.2483L21.5292 29.3375V30ZM28.8248 28.7386V24.8144C28.8248 24.2793 28.7271 23.8971 28.5318 23.6678C28.3449 23.4299 28.0179 23.311 27.5507 23.311C26.7438 23.311 25.9581 23.6253 25.1936 24.2538V29.2483L26.0855 29.3375V30H23.2952V29.3375L24.1871 29.2483V23.4766L23.2952 23.3747V22.7122H24.6458C24.9091 22.7122 25.0408 22.8396 25.0408 23.0944V23.5913C25.9326 22.8863 26.833 22.5338 27.7418 22.5338C28.4723 22.5338 29.0032 22.7207 29.3344 23.0944C29.6657 23.4682 29.8313 24.0415 29.8313 24.8144V28.624C29.8313 29.0911 30.014 29.3247 30.3792 29.3247C30.5321 29.3247 30.7105 29.2992 30.9143 29.2483L31.029 30.0127C30.6977 30.1232 30.3707 30.1784 30.0479 30.1784C29.2325 30.1784 28.8248 29.6985 28.8248 28.7386ZM37.5255 22.7122H38.532V23.3747L37.9077 23.4766L35.6653 30H34.5568L31.7793 22.7122H32.7858L35.1047 28.968L37.0541 23.0435C37.1305 22.8226 37.2876 22.7122 37.5255 22.7122ZM45.5699 26.5727H40.5499C40.5499 27.5155 40.7878 28.2502 41.2634 28.7769C41.6372 29.1931 42.1468 29.4012 42.7923 29.4012C43.4464 29.4012 44.1471 29.2101 44.8946 28.8278L45.2131 29.5668C44.3552 29.9745 43.5908 30.1784 42.9198 30.1784C42.2572 30.1784 41.7094 30.0722 41.2762 29.8598C40.8515 29.639 40.516 29.346 40.2696 28.9807C39.794 28.2418 39.5562 27.4051 39.5562 26.4708C39.5562 25.3835 39.7855 24.4704 40.2442 23.7315C40.482 23.3577 40.8048 23.0647 41.2125 22.8523C41.6287 22.64 42.1128 22.5338 42.6649 22.5338C43.5738 22.5338 44.283 22.8438 44.7927 23.4639C45.3108 24.084 45.5699 24.9121 45.5699 25.9484V26.5727ZM44.5633 25.8592C44.5633 25.0862 44.3935 24.4704 44.0537 24.0118C43.7139 23.5446 43.2255 23.311 42.5885 23.311C41.9514 23.311 41.4715 23.5531 41.1488 24.0372C40.826 24.5214 40.6349 25.1287 40.5754 25.8592H44.5633ZM51.6068 23.7824C50.9443 23.4682 50.3369 23.311 49.7848 23.311C49.2327 23.311 48.8208 23.4087 48.549 23.6041C48.2856 23.7994 48.154 24.0712 48.154 24.4195C48.154 24.7592 48.2899 25.0438 48.5617 25.2731C48.8335 25.494 49.1648 25.6808 49.5555 25.8337C49.9462 25.9866 50.3327 26.148 50.7149 26.3179C51.1056 26.4878 51.4369 26.7298 51.7087 27.0441C51.9805 27.3584 52.1164 27.7449 52.1164 28.2035C52.1164 28.8236 51.8871 29.3077 51.4284 29.656C50.9782 30.0042 50.3794 30.1784 49.6319 30.1784C48.8845 30.1784 48.2772 30 47.81 29.6433C47.3513 29.278 47.0455 28.7641 46.8926 28.1016L47.7718 27.8977C48.069 28.917 48.6636 29.4267 49.5555 29.4267C50.0566 29.4267 50.4431 29.3205 50.7149 29.1081C50.9867 28.8958 51.1226 28.6155 51.1226 28.2672C51.1226 27.9105 50.9867 27.6217 50.7149 27.4009C50.4431 27.18 50.1118 26.9931 49.7211 26.8403C49.3304 26.6874 48.9397 26.526 48.549 26.3561C48.1582 26.1862 47.827 25.9399 47.5552 25.6171C47.2834 25.2944 47.1475 24.9036 47.1475 24.445C47.1475 23.8419 47.3768 23.3747 47.8355 23.0435C48.2941 22.7037 48.893 22.5338 49.6319 22.5338C50.3794 22.5338 51.1439 22.7037 51.9253 23.0435L51.6068 23.7824ZM53.2234 23.4129V22.7122H54.3318V21.0559L55.3384 20.8265V22.7122H56.7271V23.4129H55.3384V28.624C55.3384 29.0827 55.5252 29.312 55.899 29.312C56.1453 29.312 56.3831 29.2653 56.6125 29.1718L56.7271 29.949C56.3279 30.1019 55.9245 30.1784 55.5168 30.1784C55.1175 30.1784 54.8202 30.0637 54.6249 29.8344C54.4295 29.5965 54.3318 29.2228 54.3318 28.7132V23.4129H53.2234ZM63.3465 29.6305V24.8144C63.3465 24.2793 63.2489 23.8971 63.0535 23.6678C62.8666 23.4299 62.5396 23.311 62.0725 23.311C61.359 23.311 60.654 23.6253 59.9575 24.2538V29.2483L60.8493 29.3375V30H58.0591V29.3375L58.9509 29.2483V23.4766L58.0591 23.3747V22.7122H59.4096C59.6729 22.7122 59.8046 22.8396 59.8046 23.0944V23.5913C60.6115 22.8863 61.4566 22.5338 62.34 22.5338C63.2319 22.5338 63.8265 22.8608 64.1237 23.5149C64.9222 22.8608 65.7079 22.5338 66.4808 22.5338C67.2623 22.5338 67.8186 22.7207 68.1499 23.0944C68.4811 23.4682 68.6468 24.0415 68.6468 24.8144V28.624C68.6468 29.0911 68.8294 29.3247 69.1946 29.3247C69.4155 29.3247 69.5938 29.2992 69.7298 29.2483L69.8444 30.0127C69.5132 30.1232 69.1861 30.1784 68.8634 30.1784C68.0479 30.1784 67.6402 29.6985 67.6402 28.7386V24.8144C67.6402 24.2793 67.5426 23.8971 67.3472 23.6678C67.1603 23.4299 66.8333 23.311 66.3661 23.311C65.6781 23.311 64.9901 23.5913 64.3021 24.1519C64.3361 24.4237 64.3531 24.6446 64.3531 24.8144V29.2483L65.2322 29.3375V30H63.7415C63.4782 30 63.3465 29.8768 63.3465 29.6305ZM77.136 26.5727H72.1161C72.1161 27.5155 72.3539 28.2502 72.8296 28.7769C73.2033 29.1931 73.713 29.4012 74.3585 29.4012C75.0125 29.4012 75.7133 29.2101 76.4607 28.8278L76.7793 29.5668C75.9214 29.9745 75.1569 30.1784 74.4859 30.1784C73.8234 30.1784 73.2755 30.0722 72.8423 29.8598C72.4176 29.639 72.0821 29.346 71.8358 28.9807C71.3601 28.2418 71.1223 27.4051 71.1223 26.4708C71.1223 25.3835 71.3516 24.4704 71.8103 23.7315C72.0481 23.3577 72.3709 23.0647 72.7786 22.8523C73.1948 22.64 73.679 22.5338 74.2311 22.5338C75.1399 22.5338 75.8492 22.8438 76.3588 23.4639C76.8769 24.084 77.136 24.9121 77.136 25.9484V26.5727ZM76.1295 25.8592C76.1295 25.0862 75.9596 24.4704 75.6198 24.0118C75.2801 23.5446 74.7917 23.311 74.1546 23.311C73.5176 23.311 73.0377 23.5531 72.7149 24.0372C72.3921 24.5214 72.201 25.1287 72.1416 25.8592H76.1295ZM84.2304 28.7386V24.8144C84.2304 24.2793 84.1327 23.8971 83.9374 23.6678C83.7505 23.4299 83.4235 23.311 82.9563 23.311C82.1494 23.311 81.3637 23.6253 80.5993 24.2538V29.2483L81.4911 29.3375V30H78.7009V29.3375L79.5927 29.2483V23.4766L78.7009 23.3747V22.7122H80.0514C80.3147 22.7122 80.4464 22.8396 80.4464 23.0944V23.5913C81.3382 22.8863 82.2386 22.5338 83.1474 22.5338C83.8779 22.5338 84.4088 22.7207 84.7401 23.0944C85.0713 23.4682 85.237 24.0415 85.237 24.8144V28.624C85.237 29.0911 85.4196 29.3247 85.7848 29.3247C85.9377 29.3247 86.1161 29.2992 86.3199 29.2483L86.4346 30.0127C86.1033 30.1232 85.7763 30.1784 85.4535 30.1784C84.6381 30.1784 84.2304 29.6985 84.2304 28.7386ZM87.4397 23.4129V22.7122H88.5482V21.0559L89.5547 20.8265V22.7122H90.9435V23.4129H89.5547V28.624C89.5547 29.0827 89.7416 29.312 90.1153 29.312C90.3617 29.312 90.5995 29.2653 90.8288 29.1718L90.9435 29.949C90.5443 30.1019 90.1408 30.1784 89.7331 30.1784C89.3339 30.1784 89.0366 30.0637 88.8412 29.8344C88.6459 29.5965 88.5482 29.2228 88.5482 28.7132V23.4129H87.4397ZM18.9811 46H17.9873V45.3375L18.5988 45.2483L21.4146 36.6991H22.7651L25.5936 45.2483L26.2052 45.3375V46H25.2114C24.982 46 24.8291 45.8896 24.7527 45.6687L23.9245 43.146H20.2679L19.4397 45.6687C19.3633 45.8896 19.2104 46 18.9811 46ZM22.1281 37.6547H22.0644L20.5227 42.3561H23.6697L22.1281 37.6547ZM29.9838 46.1784C29.4487 46.1784 28.9773 46.0637 28.5696 45.8344C28.1704 45.605 27.8603 45.295 27.6395 44.9043C27.1978 44.1568 26.977 43.2904 26.977 42.3051C26.977 41.048 27.304 40.067 27.958 39.362C28.1874 39.1157 28.4889 38.916 28.8626 38.7632C29.2364 38.6103 29.6611 38.5338 30.1367 38.5338C30.9097 38.5338 31.6784 38.7292 32.4428 39.1199L32.1116 39.8589C31.466 39.4936 30.8077 39.311 30.1367 39.311C29.712 39.311 29.351 39.4044 29.0537 39.5913C28.7565 39.7697 28.5314 40.016 28.3785 40.3303C28.2341 40.6361 28.1279 40.9503 28.06 41.2731C28.0005 41.5959 27.9708 41.9399 27.9708 42.3051C27.9708 42.6704 28.0005 43.0186 28.06 43.3499C28.1194 43.6812 28.2171 44.0082 28.353 44.3309C28.4889 44.6537 28.697 44.9128 28.9773 45.1081C29.2576 45.3035 29.5931 45.4012 29.9838 45.4012C30.8502 45.4012 31.449 44.9595 31.7803 44.0761L32.5957 44.3437C32.1286 45.5668 31.2579 46.1784 29.9838 46.1784ZM36.8769 46.1784C36.3418 46.1784 35.8703 46.0637 35.4626 45.8344C35.0634 45.605 34.7534 45.295 34.5325 44.9043C34.0909 44.1568 33.87 43.2904 33.87 42.3051C33.87 41.048 34.197 40.067 34.8511 39.362C35.0804 39.1157 35.3819 38.916 35.7557 38.7632C36.1294 38.6103 36.5541 38.5338 37.0298 38.5338C37.8027 38.5338 38.5714 38.7292 39.3359 39.1199L39.0046 39.8589C38.3591 39.4936 37.7008 39.311 37.0298 39.311C36.6051 39.311 36.2441 39.4044 35.9468 39.5913C35.6495 39.7697 35.4244 40.016 35.2715 40.3303C35.1271 40.6361 35.0209 40.9503 34.953 41.2731C34.8935 41.5959 34.8638 41.9399 34.8638 42.3051C34.8638 42.6704 34.8935 43.0186 34.953 43.3499C35.0125 43.6812 35.1101 44.0082 35.246 44.3309C35.3819 44.6537 35.59 44.9128 35.8703 45.1081C36.1506 45.3035 36.4862 45.4012 36.8769 45.4012C37.7433 45.4012 38.3421 44.9595 38.6733 44.0761L39.4888 44.3437C39.0216 45.5668 38.151 46.1784 36.8769 46.1784ZM40.7631 42.2924C40.7631 41.0947 41.0306 40.1689 41.5657 39.5149C42.1093 38.8608 42.8738 38.5338 43.8591 38.5338C44.8529 38.5338 45.6428 38.8863 46.2289 39.5913C46.815 40.2878 47.108 41.2349 47.108 42.4325C47.108 43.6217 46.8362 44.5433 46.2926 45.1973C45.749 45.8514 44.9803 46.1784 43.9865 46.1784C43.0012 46.1784 42.2155 45.8301 41.6294 45.1336C41.0519 44.4286 40.7631 43.4815 40.7631 42.2924ZM46.1015 42.4198C46.1015 41.46 45.9019 40.704 45.5027 40.1519C45.1035 39.5913 44.5641 39.311 43.8846 39.311C43.2051 39.311 42.6784 39.5701 42.3047 40.0882C41.9395 40.6063 41.7568 41.3411 41.7568 42.2924C41.7568 43.2437 41.9565 43.9997 42.3557 44.5603C42.7634 45.1209 43.3027 45.4012 43.9738 45.4012C44.6448 45.4012 45.1672 45.1421 45.5409 44.624C45.9146 44.1058 46.1015 43.3711 46.1015 42.4198ZM55.0723 39.1072V44.624C55.0723 45.0911 55.2592 45.3247 55.6329 45.3247C55.8453 45.3247 56.0194 45.2992 56.1553 45.2483L56.2827 46.0127C55.9344 46.1232 55.6074 46.1784 55.3016 46.1784C54.6136 46.1784 54.2144 45.8514 54.104 45.1973C53.2206 45.8514 52.3755 46.1784 51.5686 46.1784C50.7701 46.1784 50.2053 45.9958 49.874 45.6305C49.5427 45.2568 49.3771 44.6792 49.3771 43.8977V39.4766L48.4853 39.3747V38.7122H49.9505C50.2393 38.7122 50.3837 38.8438 50.3837 39.1072V43.8977C50.3837 44.4329 50.4771 44.8193 50.664 45.0572C50.8593 45.295 51.1906 45.4139 51.6577 45.4139C52.4647 45.4139 53.2716 45.0827 54.0785 44.4201V39.4766L53.3141 39.3747V38.7122H54.6901C54.9449 38.7122 55.0723 38.8438 55.0723 39.1072ZM63.1905 44.7386V40.8144C63.1905 40.2793 63.0928 39.8971 62.8974 39.6678C62.7106 39.4299 62.3835 39.311 61.9164 39.311C61.1095 39.311 60.3238 39.6253 59.5593 40.2538V45.2483L60.4512 45.3375V46H57.6609V45.3375L58.5528 45.2483V39.4766L57.6609 39.3747V38.7122H59.0114C59.2748 38.7122 59.4064 38.8396 59.4064 39.0944V39.5913C60.2983 38.8863 61.1986 38.5338 62.1075 38.5338C62.838 38.5338 63.3688 38.7207 63.7001 39.0944C64.0314 39.4682 64.197 40.0415 64.197 40.8144V44.624C64.197 45.0911 64.3796 45.3247 64.7449 45.3247C64.8978 45.3247 65.0761 45.2992 65.28 45.2483L65.3947 46.0127C65.0634 46.1232 64.7364 46.1784 64.4136 46.1784C63.5982 46.1784 63.1905 45.6985 63.1905 44.7386ZM66.3998 39.4129V38.7122H67.5082V37.0559L68.5148 36.8265V38.7122H69.9035V39.4129H68.5148V44.624C68.5148 45.0827 68.7016 45.312 69.0754 45.312C69.3217 45.312 69.5595 45.2653 69.7889 45.1718L69.9035 45.949C69.5043 46.1019 69.1009 46.1784 68.6932 46.1784C68.2939 46.1784 67.9967 46.0637 67.8013 45.8344C67.6059 45.5965 67.5082 45.2228 67.5082 44.7132V39.4129H66.3998Z" fill="#EFF2F5"/>
<path d="M39.1938 64.2243H38.2382C38.2382 63.3325 38.4931 62.6529 39.0027 62.1858C39.5123 61.7101 40.2216 61.4723 41.1304 61.4723C42.0393 61.4723 42.7443 61.6931 43.2454 62.1348C43.7466 62.568 43.9971 63.1668 43.9971 63.9313C43.9971 64.4579 43.857 64.9506 43.5767 65.4092C43.3049 65.8679 42.8844 66.3988 42.3153 67.0019L39.3722 70.1743H44.0991V70.9515H38.0853V70.1871L41.6273 66.4158C42.1115 65.9061 42.4555 65.4687 42.6593 65.1035C42.8717 64.7297 42.9779 64.3135 42.9779 63.8548C42.9779 63.3962 42.8165 63.0139 42.4937 62.7082C42.1709 62.4024 41.7123 62.2495 41.1177 62.2495C40.5316 62.2495 40.0644 62.4236 39.7162 62.7719C39.3679 63.1116 39.1938 63.5958 39.1938 64.2243ZM45.7898 66.2247C45.7898 64.7127 46.0701 63.5448 46.6307 62.7209C47.1998 61.8885 47.9983 61.4723 49.026 61.4723C50.0623 61.4723 50.8819 61.9182 51.485 62.8101C52.0881 63.6935 52.3896 64.8911 52.3896 66.403C52.3896 67.9065 52.1093 69.0744 51.5487 69.9068C50.9881 70.7307 50.1897 71.1427 49.1534 71.1427C48.1257 71.1427 47.306 70.701 46.6944 69.8176C46.0914 68.9257 45.7898 67.7281 45.7898 66.2247ZM51.3831 66.3903C51.3831 65.1162 51.1707 64.1097 50.746 63.3707C50.3298 62.6232 49.765 62.2495 49.0515 62.2495C48.338 62.2495 47.7817 62.5977 47.3824 63.2942C46.9917 63.9907 46.7964 64.9718 46.7964 66.2374C46.7964 67.4945 47.0045 68.4968 47.4207 69.2443C47.8454 69.9917 48.4145 70.3655 49.1279 70.3655C49.8499 70.3655 50.4063 70.0215 50.797 69.3334C51.1877 68.6369 51.3831 67.6559 51.3831 66.3903ZM55.2835 69.7157C55.5128 69.8601 55.6275 70.0597 55.6275 70.3145V70.4037C55.619 70.7264 55.5341 71.0535 55.3727 71.3847L55.2708 71.5758C55.1434 71.7882 54.9692 72.0133 54.7484 72.2511L54.6592 72.353L54.5191 72.4804L54.2515 72.697L53.933 72.3403L54.0859 72.1874C54.2557 71.9581 54.3662 71.7797 54.4171 71.6523C54.4681 71.5249 54.4936 71.3847 54.4936 71.2318L54.4808 71.0535C54.4469 70.9855 54.4299 70.9176 54.4299 70.8496C54.4129 70.7986 54.4044 70.7689 54.4044 70.7604L54.3662 70.633C54.3407 70.5821 54.3237 70.5353 54.3152 70.4929C54.3152 70.4504 54.3152 70.3739 54.3152 70.2635C54.3152 70.1531 54.3747 70.0087 54.4936 69.8303L54.621 69.7412L54.7356 69.6902L54.7611 69.6774C54.7866 69.6774 54.8078 69.6732 54.8248 69.6647L54.9777 69.652H55.0414C55.0839 69.652 55.1306 69.6647 55.1816 69.6902C55.2325 69.7072 55.2665 69.7157 55.2835 69.7157ZM57.5478 66.2247C57.5478 64.7127 57.8281 63.5448 58.3887 62.7209C58.9578 61.8885 59.7562 61.4723 60.784 61.4723C61.8203 61.4723 62.6399 61.9182 63.243 62.8101C63.8461 63.6935 64.1476 64.8911 64.1476 66.403C64.1476 67.9065 63.8673 69.0744 63.3067 69.9068C62.7461 70.7307 61.9477 71.1427 60.9114 71.1427C59.8836 71.1427 59.064 70.701 58.4524 69.8176C57.8493 68.9257 57.5478 67.7281 57.5478 66.2247ZM63.1411 66.3903C63.1411 65.1162 62.9287 64.1097 62.504 63.3707C62.0878 62.6232 61.523 62.2495 60.8095 62.2495C60.096 62.2495 59.5396 62.5977 59.1404 63.2942C58.7497 63.9907 58.5543 64.9718 58.5543 66.2374C58.5543 67.4945 58.7624 68.4968 59.1786 69.2443C59.6033 69.9917 60.1724 70.3655 60.8859 70.3655C61.6079 70.3655 62.1643 70.0215 62.555 69.3334C62.9457 68.6369 63.1411 67.6559 63.1411 66.3903ZM65.9713 66.2247C65.9713 64.7127 66.2516 63.5448 66.8122 62.7209C67.3812 61.8885 68.1797 61.4723 69.2074 61.4723C70.2437 61.4723 71.0634 61.9182 71.6664 62.8101C72.2695 63.6935 72.5711 64.8911 72.5711 66.403C72.5711 67.9065 72.2908 69.0744 71.7302 69.9068C71.1696 70.7307 70.3711 71.1427 69.3349 71.1427C68.3071 71.1427 67.4874 70.701 66.8759 69.8176C66.2728 68.9257 65.9713 67.7281 65.9713 66.2247ZM71.5645 66.3903C71.5645 65.1162 71.3522 64.1097 70.9275 63.3707C70.5113 62.6232 69.9464 62.2495 69.2329 62.2495C68.5194 62.2495 67.9631 62.5977 67.5639 63.2942C67.1731 63.9907 66.9778 64.9718 66.9778 66.2374C66.9778 67.4945 67.1859 68.4968 67.6021 69.2443C68.0268 69.9917 68.5959 70.3655 69.3094 70.3655C70.0314 70.3655 70.5877 70.0215 70.9784 69.3334C71.3692 68.6369 71.5645 67.6559 71.5645 66.3903ZM74.3947 66.2247C74.3947 64.7127 74.675 63.5448 75.2356 62.7209C75.8047 61.8885 76.6031 61.4723 77.6309 61.4723C78.6672 61.4723 79.4868 61.9182 80.0899 62.8101C80.693 63.6935 80.9945 64.8911 80.9945 66.403C80.9945 67.9065 80.7142 69.0744 80.1536 69.9068C79.593 70.7307 78.7946 71.1427 77.7583 71.1427C76.7305 71.1427 75.9109 70.701 75.2993 69.8176C74.6962 68.9257 74.3947 67.7281 74.3947 66.2247ZM79.988 66.3903C79.988 65.1162 79.7756 64.1097 79.3509 63.3707C78.9347 62.6232 78.3699 62.2495 77.6564 62.2495C76.9429 62.2495 76.3865 62.5977 75.9873 63.2942C75.5966 63.9907 75.4012 64.9718 75.4012 66.2374C75.4012 67.4945 75.6093 68.4968 76.0255 69.2443C76.4502 69.9917 77.0193 70.3655 77.7328 70.3655C78.4548 70.3655 79.0112 70.0215 79.4019 69.3334C79.7926 68.6369 79.988 67.6559 79.988 66.3903Z" fill="#EFF2F5"/>
<path fill-rule="evenodd" clip-rule="evenodd" d="M29.8693 72.9654H28.7103C28.4059 72.9654 28.1894 72.8483 28.0606 72.6142L25.8323 68.9025H21.9143V72.421C21.9143 72.7839 21.7329 72.9654 21.3699 72.9654H19.4207V72.0522L20.5095 71.9293V68.9025H17.6892V68.0033H20.5095V63.9571H17.6892V63.0579H20.5095V61.1997L19.4207 61.0592V60.146H21.6685C21.9494 60.146 22.166 60.2631 22.3182 60.4972L23.8529 63.0579H28.4645V60.6904C28.4645 60.3275 28.6401 60.146 28.9913 60.146H30.9581V61.0592L29.8693 61.1997V63.0579H32.5255V63.9571H29.8693V68.0033H32.5255V68.9025H29.8693V72.9654ZM21.9143 68.0033H25.2925L22.8634 63.9571H21.9143V68.0033ZM27.3556 68.9025L28.4645 70.7527V68.9025H27.3556ZM28.4645 68.0033H26.8167L24.3917 63.9571H28.4645V68.0033ZM21.9143 62.3762L22.3235 63.0579H21.9143V62.3762Z" fill="#EFF2F5"/>
<defs>
<radialGradient id="paint0_radial_106_269" cx="0" cy="0" r="1" gradientUnits="userSpaceOnUse" gradientTransform="translate(7.94536 -3.26465) rotate(44.6936) scale(131.621 144.09)">
<stop stop-color="#CD3C67"/>
<stop offset="1" stop-color="#476393"/>
</radialGradient>
</defs>
</svg>
