<svg width="76" height="76" viewBox="0 0 76 76" fill="none" xmlns="http://www.w3.org/2000/svg">
<path d="M56.3983 14.1549C56.145 14.1549 55.8916 14.0916 55.67 13.9649C49.59 10.8299 44.3333 9.49992 38.0316 9.49992C31.7616 9.49992 25.8083 10.9883 20.3933 13.9649C19.6333 14.3766 18.6833 14.0916 18.24 13.3316C18.0425 12.9612 17.9982 12.5282 18.1166 12.1255C18.235 11.7228 18.5067 11.3827 18.8733 11.1783C24.7633 7.97992 31.2233 6.33325 38.0316 6.33325C44.7766 6.33325 50.6666 7.82159 57.1266 11.1466C57.9183 11.5583 58.2033 12.5083 57.7916 13.2683C57.6664 13.5322 57.4692 13.7555 57.2227 13.9124C56.9762 14.0692 56.6905 14.1533 56.3983 14.1549ZM11.0833 30.7799C10.7914 30.7826 10.5045 30.7045 10.2543 30.554C10.0041 30.4036 9.80051 30.1868 9.66604 29.9277C9.53157 29.6686 9.4715 29.3773 9.4925 29.0862C9.51349 28.795 9.61472 28.5154 9.78497 28.2783C12.92 23.8449 16.91 20.3616 21.66 17.9233C31.6033 12.7933 44.3333 12.7616 54.3083 17.8916C59.0583 20.3299 63.0483 23.7816 66.1833 28.1833C66.3048 28.3534 66.3914 28.546 66.4381 28.7498C66.4847 28.9536 66.4906 29.1647 66.4552 29.3708C66.4199 29.5769 66.3441 29.7739 66.2322 29.9506C66.1203 30.1272 65.9745 30.2799 65.8033 30.3999C65.075 30.9066 64.0933 30.7483 63.5866 30.0199C60.8135 26.0944 57.1299 22.8999 52.8516 20.7099C43.7633 16.0549 32.1416 16.0549 23.085 20.7416C18.7783 22.9583 15.1683 26.1249 12.3183 30.1149C12.065 30.5583 11.59 30.7799 11.0833 30.7799ZM30.875 69.0016C30.6673 69.0041 30.4614 68.9632 30.2705 68.8814C30.0797 68.7996 29.908 68.6787 29.7666 68.5266C27.0116 65.7716 25.5233 63.9983 23.4016 60.1666C21.2166 56.2716 20.0766 51.5216 20.0766 46.4233C20.0766 37.0183 28.12 29.3549 38 29.3549C47.88 29.3549 55.9233 37.0183 55.9233 46.4233C55.9233 47.3099 55.2266 48.0066 54.34 48.0066C53.4533 48.0066 52.7566 47.3099 52.7566 46.4233C52.7566 38.7599 46.1383 32.5216 38 32.5216C29.8616 32.5216 23.2433 38.7599 23.2433 46.4233C23.2433 50.9833 24.2566 55.1949 26.1883 58.6149C28.215 62.2566 29.6083 63.8083 32.0466 66.2783C32.6483 66.9116 32.6483 67.8933 32.0466 68.5266C31.6983 68.8433 31.2866 69.0016 30.875 69.0016ZM53.58 63.1433C49.8116 63.1433 46.4866 62.1933 43.7633 60.3249C39.045 57.1266 36.2266 51.9333 36.2266 46.4233C36.2266 45.5366 36.9233 44.8399 37.81 44.8399C38.6966 44.8399 39.3933 45.5366 39.3933 46.4233C39.3933 50.8883 41.6733 55.0999 45.5366 57.6966C47.785 59.2166 50.4133 59.9449 53.58 59.9449C54.34 59.9449 55.6066 59.8499 56.8733 59.6283C57.7283 59.4699 58.5516 60.0399 58.71 60.9266C58.8683 61.7816 58.2983 62.6049 57.4116 62.7633C55.6066 63.1116 54.0233 63.1433 53.58 63.1433ZM47.215 69.6666C47.0883 69.6666 46.93 69.6349 46.8033 69.6033C41.7683 68.2099 38.475 66.3416 35.0233 62.9533C32.836 60.7935 31.1016 58.2191 29.9217 55.3807C28.7418 52.5424 28.14 49.4971 28.1516 46.4233C28.1516 41.2933 32.5216 37.1133 37.905 37.1133C43.2883 37.1133 47.6583 41.2933 47.6583 46.4233C47.6583 49.8116 50.6033 52.5666 54.245 52.5666C57.8866 52.5666 60.8316 49.8116 60.8316 46.4233C60.8316 34.4849 50.54 24.7949 37.8733 24.7949C28.88 24.7949 20.6466 29.7983 16.9416 37.5566C15.7066 40.1216 15.0733 43.1299 15.0733 46.4233C15.0733 48.8933 15.295 52.7883 17.195 57.8549C17.5116 58.6783 17.1 59.5966 16.2766 59.8816C15.4533 60.1983 14.535 59.7549 14.25 58.9633C12.7241 54.9584 11.9407 50.709 11.9383 46.4233C11.9383 42.6233 12.6666 39.1716 14.0916 36.1633C18.3033 27.3283 27.645 21.5966 37.8733 21.5966C52.2816 21.5966 63.9983 32.7116 63.9983 46.3916C63.9983 51.5216 59.6283 55.7016 54.245 55.7016C48.8616 55.7016 44.4916 51.5216 44.4916 46.3916C44.4916 43.0033 41.5466 40.2483 37.905 40.2483C34.2633 40.2483 31.3183 43.0033 31.3183 46.3916C31.3183 51.8066 33.4083 56.8733 37.24 60.6733C40.2483 63.6499 43.13 65.2966 47.595 66.5316C48.45 66.7533 48.925 67.6399 48.7033 68.4633C48.545 69.1916 47.88 69.6666 47.215 69.6666Z" fill="white"/>
</svg>
